<svg width="126" height="20" viewBox="0 0 126 20" fill="none" xmlns="http://www.w3.org/2000/svg">
<g id="Luis Jocic">
<path d="M0 19.6669V0H3.95791V16.5756H12.1802V19.6669H0Z" fill="#132743"/>
<path d="M24.1072 18.0946C23.823 18.6809 23.2721 19.1428 22.4548 19.4803C21.6374 19.809 20.7313 19.9734 19.7362 19.9734C18.3059 19.9734 17.1776 19.5781 16.3513 18.7875C15.5251 17.9969 15.112 16.9976 15.112 15.7895V5.35643H18.7368V15.2032C18.7368 15.8872 18.9766 16.398 19.4564 16.7355C19.945 17.0731 20.5402 17.2418 21.2421 17.2418C21.9439 17.2418 22.5792 17.0553 23.1478 16.6822C23.7163 16.3002 24.0006 15.7406 24.0006 15.0033V5.35643H27.6254V19.6669H24.2139L24.1072 18.0946Z" fill="#132743"/>
<path d="M31.9298 3.31779V0.106596H35.5545V3.31779H31.9298ZM31.9298 19.6669V5.35643H35.5545V19.6669H31.9298Z" fill="#132743"/>
<path d="M44.7097 19.9734C42.4531 19.9734 40.5919 19.6003 39.126 18.8541L39.8589 16.3891C41.5291 17.0997 43.1016 17.455 44.5764 17.455C45.7047 17.455 46.3444 16.9531 46.4954 15.9494C46.5132 15.825 46.522 15.7095 46.522 15.6029C46.522 14.8834 46.1178 14.3948 45.3094 14.1372L42.1644 13.1512C41.0894 12.8137 40.3253 12.3074 39.8722 11.6322C39.428 10.9571 39.2059 10.1355 39.2059 9.16722C39.2059 9.13169 39.2059 9.09616 39.2059 9.06063C39.2237 6.38685 41.0538 5.04997 44.6964 5.04997C46.491 5.04997 48.099 5.45414 49.5205 6.26249L48.6676 8.51432C48.2145 8.27448 47.597 8.06129 46.8152 7.87475C46.0423 7.67933 45.3138 7.58161 44.6297 7.58161C43.9456 7.58161 43.4481 7.70597 43.1372 7.9547C42.8262 8.19454 42.6708 8.61204 42.6708 9.2072C42.6708 9.79347 42.9995 10.1888 43.6569 10.3931L46.6153 11.3258C47.7969 11.6989 48.6276 12.223 49.1073 12.8981C49.596 13.5732 49.8403 14.5148 49.8403 15.7229C49.8403 16.9309 49.3961 17.9436 48.5077 18.7608C47.6192 19.5692 46.3533 19.9734 44.7097 19.9734Z" fill="#132743"/>
<path d="M71.6154 14.044C71.6154 15.9272 70.9891 17.3928 69.7364 18.441C68.4838 19.4803 66.7736 20 64.6058 20C62.4381 20 60.4836 19.5914 58.7423 18.7742L59.6618 15.8428C60.3103 16.1448 61.0655 16.3935 61.9272 16.5889C62.7979 16.7844 63.5797 16.8821 64.2727 16.8821C65.4454 16.8821 66.3027 16.5978 66.8446 16.0293C67.3866 15.4608 67.6575 14.7146 67.6575 13.7908V3.01133H60.8878V0H71.6154V14.044Z" fill="#132743"/>
<path d="M81.9566 19.9734C77.8166 19.9734 75.7466 18.4277 75.7466 15.3364V9.7002C75.7466 8.23451 76.2885 7.09305 77.3724 6.27582C78.4651 5.45858 79.9888 5.04997 81.9433 5.04997C83.9067 5.04997 85.4348 5.46302 86.5275 6.28914C87.6203 7.10637 88.1667 8.24339 88.1667 9.7002V15.3364C88.1667 17.6371 87.0739 19.0762 84.8884 19.6536C84.0711 19.8668 83.0938 19.9734 81.9566 19.9734ZM81.9566 17.455C83.6802 17.455 84.5419 16.8021 84.5419 15.4963V9.54031C84.5419 8.83855 84.3243 8.33666 83.8889 8.03464C83.4536 7.73262 82.8095 7.58161 81.9566 7.58161C80.2331 7.58161 79.3713 8.23451 79.3713 9.54031V15.4963C79.3713 16.1981 79.5846 16.7 80.011 17.002C80.4463 17.304 81.0949 17.455 81.9566 17.455Z" fill="#132743"/>
<path d="M97.6017 19.9734C94.8298 19.9734 93.0397 19.3515 92.2312 18.1079C91.7248 17.344 91.4716 16.4113 91.4716 15.3098V9.58028C91.4716 8.15012 91.9913 7.03975 93.0308 6.24917C94.0702 5.4497 95.5494 5.04997 97.4684 5.04997C99.3874 5.04997 100.831 5.43193 101.799 6.19587C102.777 6.95092 103.265 8.33666 103.265 10.3531L99.8538 10.6196C99.8538 9.33156 99.6984 8.501 99.3874 8.12791C99.2008 7.89696 98.9699 7.74595 98.6944 7.67488C98.4279 7.6127 97.9659 7.58161 97.3085 7.58161C95.8337 7.58161 95.0964 8.25228 95.0964 9.5936V15.3764C95.0964 16.1226 95.2874 16.6511 95.6694 16.962C96.0603 17.2729 96.6333 17.4284 97.3885 17.4284C98.1525 17.4284 98.69 17.3618 99.0009 17.2285C99.3119 17.0864 99.534 16.8243 99.6673 16.4424C99.8005 16.0515 99.8672 15.4386 99.8672 14.6036H103.252C103.234 15.6518 103.137 16.5046 102.959 17.1619C102.781 17.8015 102.47 18.3433 102.026 18.7875C101.226 19.5692 99.7517 19.9645 97.6017 19.9734Z" fill="#132743"/>
<path d="M106.797 3.31779V0.106596H110.422V3.31779H106.797ZM106.797 19.6669V5.35643H110.422V19.6669H106.797Z" fill="#132743"/>
<path d="M120.336 19.9734C117.564 19.9734 115.774 19.3515 114.966 18.1079C114.459 17.344 114.206 16.4113 114.206 15.3098V9.58028C114.206 8.15012 114.726 7.03975 115.765 6.24917C116.805 5.4497 118.284 5.04997 120.203 5.04997C122.122 5.04997 123.566 5.43193 124.534 6.19587C125.511 6.95092 126 8.33666 126 10.3531L122.588 10.6196C122.588 9.33156 122.433 8.501 122.122 8.12791C121.935 7.89696 121.704 7.74595 121.429 7.67488C121.163 7.6127 120.701 7.58161 120.043 7.58161C118.568 7.58161 117.831 8.25228 117.831 9.5936V15.3764C117.831 16.1226 118.022 16.6511 118.404 16.962C118.795 17.2729 119.368 17.4284 120.123 17.4284C120.887 17.4284 121.425 17.3618 121.736 17.2285C122.047 17.0864 122.269 16.8243 122.402 16.4424C122.535 16.0515 122.602 15.4386 122.602 14.6036H125.987C125.969 15.6518 125.871 16.5046 125.693 17.1619C125.516 17.8015 125.205 18.3433 124.761 18.7875C123.961 19.5692 122.486 19.9645 120.336 19.9734Z" fill="#132743"/>
</g>
</svg>
