<svg width="167" height="27" viewBox="0 0 167 27" fill="none" xmlns="http://www.w3.org/2000/svg">
<g id="Luis Jocic">
<path d="M0.339844 26V0.0546875H5.56055V21.9219H16.4062V26H0.339844Z" fill="#4383E5"/>
<path d="M32.1387 23.9258C31.7637 24.6992 31.0371 25.3086 29.959 25.7539C28.8809 26.1875 27.6855 26.4043 26.373 26.4043C24.4863 26.4043 22.998 25.8828 21.9082 24.8398C20.8184 23.7969 20.2734 22.4785 20.2734 20.8848V7.12109H25.0547V20.1113C25.0547 21.0137 25.3711 21.6875 26.0039 22.1328C26.6484 22.5781 27.4336 22.8008 28.3594 22.8008C29.2852 22.8008 30.123 22.5547 30.873 22.0625C31.623 21.5586 31.998 20.8203 31.998 19.8477V7.12109H36.7793V26H32.2793L32.1387 23.9258Z" fill="#4383E5"/>
<path d="M42.457 4.43164V0.195312H47.2383V4.43164H42.457ZM42.457 26V7.12109H47.2383V26H42.457Z" fill="#4383E5"/>
<path d="M59.3145 26.4043C56.3379 26.4043 53.8828 25.9121 51.9492 24.9277L52.916 21.6758C55.1191 22.6133 57.1934 23.082 59.1387 23.082C60.627 23.082 61.4707 22.4199 61.6699 21.0957C61.6934 20.9316 61.7051 20.7793 61.7051 20.6387C61.7051 19.6895 61.1719 19.0449 60.1055 18.7051L55.957 17.4043C54.5391 16.959 53.5312 16.291 52.9336 15.4004C52.3477 14.5098 52.0547 13.4258 52.0547 12.1484C52.0547 12.1016 52.0547 12.0547 52.0547 12.0078C52.0781 8.48047 54.4922 6.7168 59.2969 6.7168C61.6641 6.7168 63.7852 7.25 65.6602 8.31641L64.5352 11.2871C63.9375 10.9707 63.123 10.6895 62.0918 10.4434C61.0723 10.1855 60.1113 10.0566 59.209 10.0566C58.3066 10.0566 57.6504 10.2207 57.2402 10.5488C56.8301 10.8652 56.625 11.416 56.625 12.2012C56.625 12.9746 57.0586 13.4961 57.9258 13.7656L61.8281 14.9961C63.3867 15.4883 64.4824 16.1797 65.1152 17.0703C65.7598 17.9609 66.082 19.2031 66.082 20.7969C66.082 22.3906 65.4961 23.7266 64.3242 24.8047C63.1523 25.8711 61.4824 26.4043 59.3145 26.4043Z" fill="#4383E5"/>
<path d="M94.8047 18.582C94.8047 21.0664 93.9785 23 92.3262 24.3828C90.6738 25.7539 88.418 26.4395 85.5586 26.4395C82.6992 26.4395 80.1211 25.9004 77.8242 24.8223L79.0371 20.9551C79.8926 21.3535 80.8887 21.6816 82.0254 21.9395C83.1738 22.1973 84.2051 22.3262 85.1191 22.3262C86.666 22.3262 87.7969 21.9512 88.5117 21.2012C89.2266 20.4512 89.584 19.4668 89.584 18.248V4.02734H80.6543V0.0546875H94.8047V18.582Z" fill="#4383E5"/>
<path d="M108.445 26.4043C102.984 26.4043 100.254 24.3652 100.254 20.2871V12.8516C100.254 10.918 100.969 9.41211 102.398 8.33398C103.84 7.25586 105.85 6.7168 108.428 6.7168C111.018 6.7168 113.033 7.26172 114.475 8.35156C115.916 9.42969 116.637 10.9297 116.637 12.8516V20.2871C116.637 23.3223 115.195 25.2207 112.312 25.9824C111.234 26.2637 109.945 26.4043 108.445 26.4043ZM108.445 23.082C110.719 23.082 111.855 22.2207 111.855 20.498V12.6406C111.855 11.7148 111.568 11.0527 110.994 10.6543C110.42 10.2559 109.57 10.0566 108.445 10.0566C106.172 10.0566 105.035 10.918 105.035 12.6406V20.498C105.035 21.4238 105.316 22.0859 105.879 22.4844C106.453 22.8828 107.309 23.082 108.445 23.082Z" fill="#4383E5"/>
<path d="M129.082 26.4043C125.426 26.4043 123.064 25.584 121.998 23.9434C121.33 22.9355 120.996 21.7051 120.996 20.252V12.6934C120.996 10.8066 121.682 9.3418 123.053 8.29883C124.424 7.24414 126.375 6.7168 128.906 6.7168C131.438 6.7168 133.342 7.2207 134.619 8.22852C135.908 9.22461 136.553 11.0527 136.553 13.7129L132.053 14.0645C132.053 12.3652 131.848 11.2695 131.438 10.7773C131.191 10.4727 130.887 10.2734 130.523 10.1797C130.172 10.0977 129.562 10.0566 128.695 10.0566C126.75 10.0566 125.777 10.9414 125.777 12.7109V20.3398C125.777 21.3242 126.029 22.0215 126.533 22.4316C127.049 22.8418 127.805 23.0469 128.801 23.0469C129.809 23.0469 130.518 22.959 130.928 22.7832C131.338 22.5957 131.631 22.25 131.807 21.7461C131.982 21.2305 132.07 20.4219 132.07 19.3203H136.535C136.512 20.7031 136.383 21.8281 136.148 22.6953C135.914 23.5391 135.504 24.2539 134.918 24.8398C133.863 25.8711 131.918 26.3926 129.082 26.4043Z" fill="#4383E5"/>
<path d="M141.211 4.43164V0.195312H145.992V4.43164H141.211ZM141.211 26V7.12109H145.992V26H141.211Z" fill="#4383E5"/>
<path d="M159.07 26.4043C155.414 26.4043 153.053 25.584 151.986 23.9434C151.318 22.9355 150.984 21.7051 150.984 20.252V12.6934C150.984 10.8066 151.67 9.3418 153.041 8.29883C154.412 7.24414 156.363 6.7168 158.895 6.7168C161.426 6.7168 163.33 7.2207 164.607 8.22852C165.896 9.22461 166.541 11.0527 166.541 13.7129L162.041 14.0645C162.041 12.3652 161.836 11.2695 161.426 10.7773C161.18 10.4727 160.875 10.2734 160.512 10.1797C160.16 10.0977 159.551 10.0566 158.684 10.0566C156.738 10.0566 155.766 10.9414 155.766 12.7109V20.3398C155.766 21.3242 156.018 22.0215 156.521 22.4316C157.037 22.8418 157.793 23.0469 158.789 23.0469C159.797 23.0469 160.506 22.959 160.916 22.7832C161.326 22.5957 161.619 22.25 161.795 21.7461C161.971 21.2305 162.059 20.4219 162.059 19.3203H166.523C166.5 20.7031 166.371 21.8281 166.137 22.6953C165.902 23.5391 165.492 24.2539 164.906 24.8398C163.852 25.8711 161.906 26.3926 159.07 26.4043Z" fill="#4383E5"/>
</g>
</svg>
