<?xml version="1.0" encoding="utf-8"?>
<!-- Generator: Adobe Illustrator 24.0.0, SVG Export Plug-In . SVG Version: 6.00 Build 0)  -->
<svg version="1.1" id="Layer_1" xmlns="http://www.w3.org/2000/svg" xmlns:xlink="http://www.w3.org/1999/xlink" x="0px" y="0px"
	 viewBox="0 0 256 256" enable-background="new 0 0 256 256" xml:space="preserve">
<g>
	<g>
		<g>
			<path fill="#63BCE7" d="M128,219.795c-53.641,0-97.282-43.641-97.282-97.281S74.359,25.232,128,25.232
				c20.97,0,40.956,6.596,57.798,19.074c24.723,18.316,39.483,47.553,39.483,78.207C225.282,176.154,181.641,219.795,128,219.795z
				 M128,35.232c-48.127,0-87.282,39.154-87.282,87.281S79.873,209.795,128,209.795s87.282-39.154,87.282-87.281
				c0-27.5-13.247-53.732-35.437-70.172C164.738,41.148,146.81,35.232,128,35.232z"/>
		</g>
		<circle fill="#CECECE" cx="128" cy="122.514" r="58.585"/>
		<g>
			<path fill="#AFAFAF" d="M84.082,122.513c0-29.87,22.36-54.501,51.252-58.112c-2.404-0.301-4.848-0.473-7.333-0.473
				c-32.356,0-58.585,26.229-58.585,58.585c0,32.356,26.229,58.585,58.585,58.585c2.486,0,4.929-0.173,7.333-0.473
				C106.442,177.015,84.082,152.384,84.082,122.513z"/>
		</g>
		<g>
			<circle fill="#F8AF23" cx="156.916" cy="121.076" r="11.715"/>
			<polygon fill="#F8AF23" points="145.961,148.613 118.559,134.233 118.559,107.908 145.961,93.528 			"/>
			<rect x="145.961" y="93.528" fill="#F46275" width="10.955" height="55.085"/>
			<rect x="95.514" y="107.908" fill="#CECECE" width="23.046" height="26.337"/>
			<rect x="81.731" y="114.483" fill="#F46275" width="13.783" height="13.174"/>
			<rect x="101.954" y="134.244" fill="#CECECE" width="10.165" height="20.602"/>
		</g>
		<g>
			<path fill="#63BCE7" d="M46.664,110.301l-10.945,10.944l-10.945-10.944c-1.953-1.953-5.118-1.953-7.071,0
				c-1.953,1.952-1.953,5.118,0,7.07l14.481,14.48c0.977,0.977,2.256,1.465,3.536,1.465s2.559-0.488,3.536-1.465l14.481-14.48
				c1.953-1.952,1.953-5.118,0-7.07C51.783,108.348,48.618,108.348,46.664,110.301z"/>
			<path fill="#63BCE7" d="M238.298,126.219l-14.481-14.48c-1.953-1.953-5.118-1.953-7.071,0l-14.481,14.48
				c-1.953,1.952-1.953,5.118,0,7.07c1.953,1.954,5.118,1.954,7.071,0l10.945-10.944l10.945,10.944
				c0.977,0.977,2.256,1.465,3.536,1.465s2.559-0.488,3.536-1.465C240.251,131.337,240.251,128.171,238.298,126.219z"/>
			<path fill="#63BCE7" d="M124.295,196.778c-1.952-1.952-5.117-1.951-7.071-0.001c-1.953,1.953-1.953,5.119,0,7.071l10.945,10.946
				l-10.945,10.945c-1.953,1.952-1.953,5.118,0,7.07c0.977,0.977,2.256,1.465,3.536,1.465s2.559-0.488,3.536-1.465l14.48-14.48
				c1.953-1.952,1.953-5.118,0-7.07L124.295,196.778z"/>
			<path fill="#63BCE7" d="M138.776,12.217c-1.953-1.953-5.118-1.953-7.071,0l-14.48,14.48c-1.953,1.952-1.953,5.118,0,7.07
				l14.48,14.481c0.977,0.977,2.256,1.465,3.536,1.465c1.279,0,2.559-0.488,3.536-1.464c1.953-1.953,1.953-5.119,0-7.071
				l-10.945-10.946l10.945-10.945C140.729,17.335,140.729,14.169,138.776,12.217z"/>
		</g>
	</g>
	<g>
		<path fill="#3F3679" d="M188.085,122.514c0-33.131-26.954-60.085-60.085-60.085s-60.085,26.954-60.085,60.085
			S94.869,182.599,128,182.599S188.085,155.645,188.085,122.514z M70.915,122.514c0-31.477,25.608-57.085,57.085-57.085
			s57.085,25.608,57.085,57.085S159.477,179.599,128,179.599S70.915,153.99,70.915,122.514z"/>
		<path fill="#3F3679" d="M118.21,135.744l27.054,14.196v-0.007c0.209,0.111,0.444,0.179,0.697,0.179h10.956
			c0.829,0,1.5-0.672,1.5-1.5V134.2c6.582-0.748,11.715-6.344,11.715-13.124s-5.133-12.376-11.715-13.125V93.528
			c0-0.828-0.671-1.5-1.5-1.5h-10.956c-0.253,0-0.488,0.069-0.697,0.179V92.2l-27.074,14.207H95.514c-0.829,0-1.5,0.672-1.5,1.5
			v5.076H81.73c-0.829,0-1.5,0.672-1.5,1.5v13.174c0,0.828,0.671,1.5,1.5,1.5h12.283v5.087c0,0.828,0.671,1.5,1.5,1.5h4.94v19.103
			c0,0.828,0.671,1.5,1.5,1.5h10.166c0.829,0,1.5-0.672,1.5-1.5v-19.103H118.21z M167.132,121.076c0,5.122-3.793,9.363-8.715,10.092
			v-20.185C163.339,111.713,167.132,115.954,167.132,121.076z M147.461,95.028h7.956v52.084h-7.956V95.028z M144.461,146.131
			l-24.402-12.805v-24.512l24.402-12.805V146.131z M83.23,126.157v-10.174h10.783v10.174H83.23z M97.014,127.657v-13.174v-5.076
			h20.045v23.337h-4.94h-10.166h-4.94V127.657z M110.619,153.347h-7.166v-17.603h7.166V153.347z"/>
		<path fill="#3F3679" d="M27.323,243.748H9.32c-0.829,0-1.5,0.672-1.5,1.5s0.671,1.5,1.5,1.5h18.003c0.829,0,1.5-0.672,1.5-1.5
			S28.152,243.748,27.323,243.748z"/>
		<path fill="#3F3679" d="M246.68,243.748h-18.003c-0.829,0-1.5,0.672-1.5,1.5s0.671,1.5,1.5,1.5h18.003c0.829,0,1.5-0.672,1.5-1.5
			S247.509,243.748,246.68,243.748z"/>
		<path fill="#3F3679" d="M218.479,243.748H37.521c-0.829,0-1.5,0.672-1.5,1.5s0.671,1.5,1.5,1.5h180.959c0.829,0,1.5-0.672,1.5-1.5
			S219.308,243.748,218.479,243.748z"/>
		<path fill="#3F3679" d="M9.32,235.775h237.36c0.829,0,1.5-0.672,1.5-1.5s-0.671-1.5-1.5-1.5H126.452l12.039-12.039
			c23.193-2.461,44.868-13.168,61.053-30.175c15.586-16.38,25.053-37.566,26.888-59.947l3.735,3.735
			c1.228,1.229,2.86,1.904,4.596,1.904s3.368-0.676,4.596-1.904c1.228-1.228,1.904-2.859,1.904-4.596s-0.676-3.368-1.904-4.596
			l-13.151-13.15c-0.001-0.014,0.001-0.027,0-0.041c-2.984-27.371-17.388-52.471-39.517-68.865
			c-14.851-11.003-32.275-17.546-50.574-19.035l3.719-3.719c1.228-1.228,1.904-2.859,1.904-4.596s-0.676-3.368-1.904-4.596
			c-2.534-2.535-6.658-2.535-9.192,0l-13.13,13.13c-0.001,0-0.003,0-0.004,0c-22.997,2.438-44.548,13.02-60.683,29.794
			c-15.476,16.09-25.033,36.946-27.142,59.012l-3.852-3.852c-2.534-2.535-6.658-2.535-9.192,0c-1.228,1.228-1.904,2.859-1.904,4.596
			s0.676,3.368,1.904,4.596l13.025,13.024c-0.017,0.117-0.025,0.236-0.014,0.358c2.198,23.418,12.79,45.36,29.826,61.787
			c16.442,15.855,37.813,25.488,60.424,27.34l-3.738,3.738c-1.228,1.228-1.904,2.859-1.904,4.596c0,1.261,0.361,2.464,1.026,3.5
			H9.32c-0.829,0-1.5,0.672-1.5,1.5S8.491,235.775,9.32,235.775z M197.37,188.493c-14.986,15.748-34.825,25.913-56.162,28.876
			c0.347-0.803,0.532-1.674,0.532-2.575c0-1.62-0.595-3.144-1.67-4.338c19.72-2.7,38.103-12.051,51.994-26.538
			c14.516-15.138,23.23-34.946,24.54-55.776l3.677-3.677l3.347,3.347C222.387,150.451,213.076,171.987,197.37,188.493z
			 M116.164,204.909l2.921,2.921c-19.002-1.982-36.9-10.324-50.735-23.727c-14.678-14.22-23.821-33.185-25.744-53.4
			c-0.002-0.024-0.01-0.045-0.014-0.069l12.203-12.203c1.228-1.228,1.904-2.859,1.904-4.596s-0.676-3.368-1.904-4.596
			c-2.533-2.533-6.656-2.533-9.192-0.001c0,0.001,0,0.001,0,0.001l-2.739,2.738c4.815-39.306,36.039-70.378,75.724-74.726
			l12.056,12.057c1.228,1.229,2.86,1.904,4.596,1.904c1.735,0,3.368-0.676,4.597-1.903c1.228-1.228,1.903-2.86,1.903-4.597
			s-0.676-3.368-1.904-4.596l-2.924-2.924c15.196,1.571,29.666,7.186,42.039,16.353c19.163,14.198,31.647,35.892,34.3,59.564
			l-12.047,12.047c-1.228,1.228-1.904,2.859-1.904,4.596s0.676,3.368,1.903,4.596c1.228,1.229,2.86,1.905,4.597,1.905
			s3.369-0.677,4.596-1.905l2.919-2.918c-1.967,18.843-10.201,36.629-23.417,50.411c-13.951,14.55-32.583,23.752-52.484,25.935
			l-12.059-12.06c-2.532-2.533-6.656-2.533-9.193-0.001c-1.228,1.228-1.903,2.86-1.903,4.597S114.936,203.682,116.164,204.909z
			 M238.263,129.754c0,0.935-0.364,1.813-1.025,2.475c-1.323,1.322-3.627,1.322-4.95,0l-10.945-10.944
			c-0.586-0.586-1.535-0.586-2.121,0l-10.946,10.944c-1.322,1.324-3.626,1.324-4.95,0c-0.661-0.661-1.025-1.54-1.025-2.475
			s0.364-1.813,1.025-2.475l14.481-14.48c0.683-0.683,1.579-1.023,2.475-1.023s1.792,0.341,2.475,1.023l14.481,14.48
			C237.899,127.94,238.263,128.819,238.263,129.754z M184.905,45.512c20.652,15.3,34.36,38.42,37.942,63.795
			c-2.272-0.973-4.983-0.591-6.907,1.141c-3.28-23.589-16.001-45.086-35.202-59.311c-13.762-10.196-30.03-16.152-47.045-17.226
			c-0.02-0.001-0.04,0.003-0.06,0.003l-3.681-3.682l3.349-3.349C151.978,27.899,169.812,34.329,184.905,45.512z M132.765,13.277
			c0.683-0.683,1.579-1.023,2.475-1.023s1.792,0.341,2.475,1.023c0.661,0.661,1.025,1.54,1.025,2.475s-0.364,1.813-1.025,2.475
			L126.77,29.172c-0.586,0.586-0.586,1.535,0,2.121l10.945,10.946c0.661,0.661,1.025,1.54,1.025,2.475
			c0,0.936-0.364,1.814-1.024,2.475c-1.323,1.322-3.627,1.322-4.951,0l-14.48-14.481c-0.661-0.661-1.025-1.54-1.025-2.475
			s0.364-1.813,1.025-2.475L132.765,13.277z M58.989,56.159c14.933-15.524,34.652-25.561,55.802-28.5
			c-0.346,0.802-0.532,1.673-0.532,2.573c0,1.619,0.594,3.142,1.669,4.336c-41.189,5.609-73.062,39.117-76.413,80.758l-3.798,3.797
			l-3.262-3.262C33.995,93.552,43.402,72.365,58.989,56.159z M17.737,113.836c0-0.935,0.364-1.813,1.025-2.475
			c0.662-0.661,1.541-1.025,2.475-1.025s1.813,0.364,2.475,1.025l10.945,10.944c0.586,0.586,1.535,0.586,2.121,0l10.945-10.944
			c1.367-1.363,3.586-1.363,4.95,0c0.661,0.661,1.025,1.54,1.025,2.475s-0.364,1.813-1.025,2.475l-14.481,14.48
			c-1.323,1.322-3.627,1.322-4.95,0l-14.481-14.48C18.101,115.649,17.737,114.771,17.737,113.836z M61.56,191.442
			c-15.872-15.304-25.953-35.549-28.61-57.25c0.856,0.404,1.794,0.624,2.769,0.624c1.544,0,3.005-0.538,4.173-1.521
			c2.446,20.056,11.741,38.79,26.371,52.963c15.187,14.712,35.108,23.535,56.106,24.856l3.68,3.68l-3.354,3.354
			C99.832,216.895,78.122,207.411,61.56,191.442z M118.285,226.801l10.945-10.945c0.586-0.586,0.586-1.535,0-2.121l-10.945-10.946
			c-0.661-0.661-1.025-1.54-1.025-2.475c0-0.936,0.364-1.814,1.024-2.475c0.683-0.682,1.58-1.022,2.477-1.022
			s1.793,0.341,2.475,1.022l14.48,14.481c0.661,0.661,1.025,1.54,1.025,2.475s-0.364,1.813-1.025,2.475l-14.48,14.48
			c-1.323,1.322-3.627,1.322-4.95,0c-0.661-0.661-1.025-1.54-1.025-2.475S117.624,227.462,118.285,226.801z"/>
	</g>
</g>
</svg>
