<?xml version="1.0" encoding="utf-8"?>
<!-- Generator: Adobe Illustrator 24.0.0, SVG Export Plug-In . SVG Version: 6.00 Build 0)  -->
<svg version="1.1" id="Layer_1" xmlns="http://www.w3.org/2000/svg" xmlns:xlink="http://www.w3.org/1999/xlink" x="0px" y="0px"
	 viewBox="0 0 256 256" enable-background="new 0 0 256 256" xml:space="preserve">
<g>
	<path fill="#CECECE" d="M44.071,151.262c0,4.849,3.931,8.78,8.78,8.78h150.299c4.849,0,8.78-3.931,8.78-8.78V47.808H44.071V151.262
		z"/>
	<g>
		<path fill="#AFAFAF" d="M58.737,151.262V47.808H44.071v103.454c0,4.849,3.931,8.78,8.78,8.78h14.667
			C62.668,160.042,58.737,156.111,58.737,151.262z"/>
	</g>
	<g>
		<path fill="#E2E2E2" d="M197.263,151.262V47.808h14.667v103.454c0,4.849-3.931,8.78-8.78,8.78h-14.667
			C193.332,160.042,197.263,156.111,197.263,151.262z"/>
	</g>
	<path fill="#63BCE7" d="M203.149,16.242H52.851c-4.849,0-8.78,3.931-8.78,8.78v22.786h167.859V25.022
		C211.929,20.173,207.998,16.242,203.149,16.242z"/>
	<g>
		<path fill="#6377E7" d="M67.517,16.242H52.851c-4.849,0-8.78,3.931-8.78,8.78v22.786h14.667V25.022
			C58.737,20.173,62.668,16.242,67.517,16.242z"/>
	</g>
	<g>
		<path fill="#63E2E7" d="M188.483,16.242h14.667c4.849,0,8.78,3.931,8.78,8.78v22.786h-14.667V25.022
			C197.263,20.173,193.332,16.242,188.483,16.242z"/>
	</g>
	<g>
		<circle fill="#F46275" cx="64.634" cy="32.025" r="5.261"/>
		<circle fill="#F46275" cx="84.898" cy="32.025" r="5.261"/>
		<circle fill="#F46275" cx="105.161" cy="32.025" r="5.261"/>
	</g>
	<path fill="#F46275" d="M193.045,36.378h-67.42c-1.97,0-3.583-1.612-3.583-3.583v-0.852c0-1.97,1.612-3.583,3.583-3.583h67.42
		c1.97,0,3.583,1.612,3.583,3.583v0.852C196.627,34.766,195.015,36.378,193.045,36.378z"/>
	<g>
		<path fill="#F87023" d="M50.875,145.003h-3.259c-3.912,0-7.083-3.171-7.083-7.083v-18.84c0-3.912,3.171-7.083,7.083-7.083h3.259
			c3.912,0,7.083,3.171,7.083,7.083v18.84C57.958,141.832,54.787,145.003,50.875,145.003z"/>
		<path fill="#F8AF23" d="M56.592,128.085h-0.986c-12.671,0-22.944-10.272-22.944-22.944v-7.603
			c0-12.671,10.272-22.944,22.944-22.944h0.986c12.671,0,22.944,10.272,22.944,22.944v7.603
			C79.536,117.813,69.263,128.085,56.592,128.085z"/>
		<g>
			<path fill="#F87023" d="M47.329,105.142v-7.604c0-10.289,6.773-18.996,16.104-21.906c-2.161-0.674-4.458-1.037-6.84-1.037h-0.986
				c-12.671,0-22.944,10.272-22.944,22.943v7.604c0,12.671,10.272,22.943,22.944,22.943h0.986c2.382,0,4.68-0.363,6.84-1.038
				C54.102,124.137,47.329,115.43,47.329,105.142z"/>
		</g>
		<path fill="#63BCE7" d="M81.725,228.785H15.097v-65.224c0-14.958,12.126-27.083,27.083-27.083h12.462
			c14.958,0,27.083,12.126,27.083,27.083V228.785z"/>
		<g>
			<path fill="#6377E7" d="M55.744,136.505c-0.366-0.015-0.733-0.028-1.102-0.028H42.18c-14.958,0-27.083,12.125-27.083,27.083
				v65.224h14.667v-65.224C29.763,148.973,41.299,137.084,55.744,136.505z"/>
		</g>
		<path fill="#F8D323" d="M205.125,145.003h3.259c3.912,0,7.083-3.171,7.083-7.083v-18.84c0-3.912-3.171-7.083-7.083-7.083h-3.259
			c-3.912,0-7.083,3.171-7.083,7.083v18.84C198.042,141.832,201.213,145.003,205.125,145.003z"/>
		<path fill="#F8AF23" d="M199.408,128.085h0.986c12.671,0,22.944-10.272,22.944-22.944v-7.603
			c0-12.671-10.272-22.944-22.944-22.944h-0.986c-12.671,0-22.944,10.272-22.944,22.944v7.603
			C176.464,117.813,186.737,128.085,199.408,128.085z"/>
		<g>
			<path fill="#F8D323" d="M200.394,74.595h-0.986c-2.382,0-4.68,0.363-6.84,1.037c9.331,2.911,16.103,11.617,16.103,21.906v7.604
				c0,10.289-6.773,18.996-16.103,21.906c2.161,0.674,4.458,1.038,6.84,1.038h0.986c12.671,0,22.943-10.272,22.943-22.943v-7.604
				C223.338,84.867,213.066,74.595,200.394,74.595z"/>
		</g>
		<path fill="#F46275" d="M174.275,228.785h66.629v-65.224c0-14.958-12.126-27.083-27.083-27.083h-12.462
			c-14.958,0-27.083,12.126-27.083,27.083V228.785z"/>
		<g>
			<path fill="#F48875" d="M213.82,136.477h-12.462c-0.37,0-0.736,0.013-1.102,0.028c14.446,0.579,25.981,12.468,25.981,27.056
				v65.224h14.667v-65.224C240.903,148.603,228.778,136.477,213.82,136.477z"/>
		</g>
		<g>
			<path fill="#CECECE" d="M108.155,213.046L65.92,201.757c-2.439-0.652-4.619-2.039-6.243-3.973l-23.785-28.321
				c-4.369-5.202-3.694-12.961,1.509-17.33c5.201-4.369,12.962-3.693,17.33,1.509l21.29,25.35l38.487,10.287
				c6.563,1.754,10.461,8.497,8.707,15.06C121.46,210.902,114.717,214.8,108.155,213.046z"/>
			<g>
				<path fill="#F8AF23" d="M114.507,189.279l-5.369-1.435l-6.353,23.767l5.369,1.435c6.563,1.754,13.306-2.144,15.06-8.707
					C124.969,197.776,121.07,191.033,114.507,189.279z"/>
			</g>
		</g>
		<g>
			<path fill="#CECECE" d="M139.729,213.046l42.235-11.289c2.439-0.652,4.619-2.039,6.243-3.973l23.785-28.321
				c4.369-5.202,3.694-12.961-1.509-17.33c-5.201-4.369-12.962-3.693-17.33,1.509l-21.29,25.35l-38.487,10.287
				c-6.563,1.754-10.461,8.497-8.707,15.06S133.166,214.8,139.729,213.046z"/>
			<g>
				<path fill="#F8AF23" d="M133.376,189.279l5.369-1.435l6.353,23.767l-5.369,1.435c-6.563,1.754-13.306-2.144-15.06-8.707
					C122.915,197.776,126.813,191.033,133.376,189.279z"/>
			</g>
		</g>
	</g>
	<g>
		<path fill="#F8AF23" d="M147.666,71.319l-30.592,34.922l-10.026-8.1c-4.465-3.604-11.006-2.916-14.613,1.533
			c-3.613,4.441-2.928,10.964,1.529,14.568l25.591,20.662l43.765-49.954c3.776-4.308,3.331-10.854-0.993-14.617
			C158.01,66.573,151.436,67.011,147.666,71.319z"/>
		<g>
			<path fill="#3F3679" d="M64.634,25.264c-3.728,0-6.761,3.033-6.761,6.761s3.033,6.761,6.761,6.761s6.761-3.033,6.761-6.761
				S68.361,25.264,64.634,25.264z M64.634,35.786c-2.073,0-3.761-1.688-3.761-3.761s1.688-3.761,3.761-3.761
				s3.761,1.687,3.761,3.761S66.707,35.786,64.634,35.786z"/>
			<path fill="#3F3679" d="M84.897,25.264c-3.728,0-6.761,3.033-6.761,6.761s3.033,6.761,6.761,6.761s6.761-3.033,6.761-6.761
				S88.625,25.264,84.897,25.264z M84.897,35.786c-2.073,0-3.761-1.688-3.761-3.761s1.688-3.761,3.761-3.761
				s3.761,1.687,3.761,3.761S86.971,35.786,84.897,35.786z"/>
			<path fill="#3F3679" d="M105.161,25.264c-3.728,0-6.761,3.033-6.761,6.761s3.033,6.761,6.761,6.761
				c3.729,0,6.762-3.033,6.762-6.761S108.89,25.264,105.161,25.264z M105.161,35.786c-2.073,0-3.761-1.688-3.761-3.761
				s1.688-3.761,3.761-3.761c2.074,0,3.762,1.687,3.762,3.761S107.235,35.786,105.161,35.786z"/>
			<path fill="#3F3679" d="M193.045,26.861h-67.42c-2.803,0-5.083,2.28-5.083,5.083v0.852c0,2.803,2.28,5.083,5.083,5.083h67.42
				c2.802,0,5.082-2.28,5.082-5.083v-0.852C198.127,29.141,195.847,26.861,193.045,26.861z M195.127,32.795
				c0,1.148-0.934,2.083-2.082,2.083h-67.42c-1.148,0-2.083-0.934-2.083-2.083v-0.852c0-1.148,0.935-2.083,2.083-2.083h67.42
				c1.148,0,2.082,0.934,2.082,2.083V32.795z"/>
			<path fill="#3F3679" d="M27.323,238.258H9.32c-0.828,0-1.5,0.671-1.5,1.5s0.672,1.5,1.5,1.5h18.003c0.828,0,1.5-0.671,1.5-1.5
				S28.151,238.258,27.323,238.258z"/>
			<path fill="#3F3679" d="M246.68,238.258h-18.003c-0.828,0-1.5,0.671-1.5,1.5s0.672,1.5,1.5,1.5h18.003c0.828,0,1.5-0.671,1.5-1.5
				S247.508,238.258,246.68,238.258z"/>
			<path fill="#3F3679" d="M218.479,238.258H37.521c-0.828,0-1.5,0.671-1.5,1.5s0.672,1.5,1.5,1.5h180.959
				c0.828,0,1.5-0.671,1.5-1.5S219.308,238.258,218.479,238.258z"/>
			<path fill="#3F3679" d="M9.32,230.285H246.68c0.828,0,1.5-0.671,1.5-1.5s-0.672-1.5-1.5-1.5h-4.276v-63.725
				c0-14.697-11.151-26.834-25.436-28.406v-12.067c4.835-4.469,7.87-10.859,7.87-17.946v-7.603c0-8.688-4.56-16.327-11.408-20.663
				V47.808V25.022c0-5.668-4.611-10.28-10.28-10.28H52.851c-5.669,0-10.28,4.611-10.28,10.28v22.786v29.068
				c-6.848,4.336-11.408,11.974-11.408,20.663v7.603c0,7.088,3.035,13.477,7.87,17.946v12.067
				c-14.285,1.572-25.436,13.709-25.436,28.406v63.725H9.32c-0.828,0-1.5,0.671-1.5,1.5S8.492,230.285,9.32,230.285z
				 M239.403,163.561v63.724h-63.629v-22.321l6.577-1.758c2.75-0.735,5.173-2.276,7.004-4.457l23.785-28.321
				c2.371-2.823,3.501-6.4,3.181-10.073c-0.319-3.672-2.051-7-4.873-9.371c-2.823-2.371-6.395-3.501-10.073-3.181
				c-3.673,0.32-7.001,2.051-9.37,4.873l-16.23,19.325v-8.441c0-14.106,11.477-25.583,25.584-25.583h12.462
				C227.927,137.978,239.403,149.454,239.403,163.561z M146.159,209.774l-5.578-20.868l31.668-8.465
				c0.297-0.08,0.563-0.249,0.761-0.484l21.291-25.351c1.854-2.209,4.459-3.563,7.334-3.813c0.32-0.028,0.639-0.042,0.956-0.042
				c2.534,0,4.964,0.881,6.927,2.53c2.209,1.855,3.563,4.46,3.814,7.334c0.25,2.875-0.634,5.674-2.489,7.883l-23.785,28.321
				c-1.434,1.707-3.329,2.913-5.482,3.488L146.159,209.774z M123.942,195.587c-1.635-3.688-4.855-6.637-9.046-7.757l-5.369-1.435
				c-0.001,0-0.001,0-0.002-0.001s-0.001,0-0.002,0l-26.298-7.029v-15.805c0-0.679-0.032-1.351-0.079-2.019h89.707
				c-0.047,0.668-0.079,1.339-0.079,2.019v11.762c0,0.077,0.011,0.15,0.023,0.224l-1.779,2.119l-32.656,8.729
				c-0.001,0-0.003,0-0.004,0.001s-0.002,0.001-0.004,0.001l-5.365,1.434C128.797,188.95,125.577,191.899,123.942,195.587z
				 M66.308,200.308c-2.153-0.575-4.049-1.781-5.482-3.488L37.04,168.499c-1.855-2.209-2.739-5.009-2.489-7.883
				s1.604-5.479,3.814-7.334c1.963-1.649,4.393-2.53,6.927-2.53c0.317,0,0.636,0.014,0.956,0.042
				c2.874,0.25,5.479,1.605,7.334,3.814l21.29,25.351c0.198,0.236,0.464,0.405,0.761,0.484l31.668,8.464l-5.578,20.868
				L66.308,200.308z M110.199,189.681l3.921,1.048c5.754,1.538,9.184,7.469,7.646,13.223s-7.471,9.184-13.224,7.645l-3.92-1.048
				L110.199,189.681z M133.764,190.729l3.92-1.048l5.578,20.868l-3.92,1.048c-2.787,0.745-5.697,0.36-8.194-1.083
				c-2.498-1.444-4.283-3.774-5.028-6.562C124.58,198.198,128.01,192.266,133.764,190.729z M213.968,134.981
				c-0.049,0-0.098-0.004-0.147-0.004h-12.462c-0.611,0-1.215,0.026-1.816,0.064v-5.456h0.853c5.019,0,9.688-1.522,13.573-4.126
				V134.981z M221.838,97.539v7.603c0,11.824-9.619,21.443-21.443,21.443h-0.986c-11.824,0-21.444-9.62-21.444-21.443v-7.603
				c0-11.824,9.62-21.444,21.444-21.444h0.986C212.219,76.095,221.838,85.714,221.838,97.539z M45.57,25.022
				c0-4.014,3.266-7.28,7.28-7.28h150.299c4.015,0,7.28,3.266,7.28,7.28v21.286H45.57V25.022z M45.57,49.308H210.43v25.95
				c-3.064-1.386-6.459-2.164-10.035-2.164h-0.986c-13.479,0-24.444,10.965-24.444,24.444v7.603c0,12.508,9.446,22.846,21.578,24.27
				v5.98c-11.84,2.018-21.216,11.339-23.317,23.151H82.775c-2.102-11.812-11.477-21.132-23.317-23.151v-5.98
				c12.132-1.424,21.578-11.762,21.578-24.27v-7.603c0-13.479-10.966-24.444-24.444-24.444h-0.986
				c-3.576,0-6.971,0.778-10.035,2.164V49.308z M34.162,105.142v-7.603c0-11.824,9.619-21.444,21.443-21.444h0.986
				c11.824,0,21.444,9.62,21.444,21.444v7.603c0,11.824-9.62,21.443-21.444,21.443h-0.986
				C43.781,126.585,34.162,116.965,34.162,105.142z M42.032,125.459c3.885,2.604,8.554,4.126,13.573,4.126h0.853v5.456
				c-0.601-0.038-1.206-0.064-1.816-0.064H42.18c-0.049,0-0.098,0.003-0.147,0.004V125.459z M16.597,163.561
				c0-14.106,11.477-25.583,25.583-25.583h12.462c14.107,0,25.584,11.477,25.584,25.583v15.003l-3.36-0.898l-20.986-24.988
				c-2.37-2.822-5.698-4.553-9.371-4.873c-3.667-0.321-7.249,0.811-10.072,3.18c-2.823,2.371-4.554,5.699-4.873,9.372
				c-0.32,3.672,0.81,7.25,3.181,10.073l23.785,28.321c1.831,2.181,4.254,3.722,7.004,4.457l14.693,3.927v20.151H16.597V163.561z
				 M83.226,207.935l19.171,5.124c0,0,0,0,0.001,0s0,0,0.001,0l5.368,1.435c1.189,0.318,2.384,0.47,3.561,0.47
				c5.401,0,10.401-3.204,12.619-8.22c1.172,2.661,3.134,4.882,5.699,6.365c2.128,1.23,4.491,1.859,6.885,1.859
				c1.196,0,2.4-0.157,3.587-0.474l5.369-1.435c0,0,0,0,0,0c0,0,0,0,0,0l27.289-7.294v21.519H83.226V207.935z"/>
			<path fill="#3F3679" d="M93.021,115.408l25.592,20.662c0.277,0.224,0.61,0.333,0.941,0.333c0.418,0,0.833-0.174,1.129-0.512
				l43.765-49.954c2.09-2.385,3.123-5.439,2.909-8.6c-0.214-3.163-1.65-6.053-4.045-8.137c-4.94-4.301-12.463-3.794-16.774,1.131
				l0.001,0l-29.644,33.837l-8.905-7.194c-5.1-4.117-12.6-3.328-16.72,1.753c-1.999,2.457-2.918,5.545-2.59,8.693
				C89.009,110.574,90.55,113.411,93.021,115.408z M93.599,100.618c1.753-2.162,4.323-3.284,6.915-3.284
				c1.967,0,3.945,0.646,5.591,1.974l10.026,8.1c0.625,0.506,1.54,0.427,2.07-0.179l30.593-34.922c0.001,0,0.001,0,0.001,0
				c3.222-3.683,8.851-4.062,12.547-0.844c1.789,1.558,2.862,3.716,3.021,6.077c0.16,2.359-0.611,4.639-2.172,6.42l-42.815,48.871
				l-24.47-19.756c-1.846-1.492-2.997-3.611-3.243-5.965C91.418,104.759,92.105,102.455,93.599,100.618z"/>
		</g>
	</g>
</g>
</svg>
