<?xml version="1.0" encoding="utf-8"?>
<!-- Generator: Adobe Illustrator 24.0.0, SVG Export Plug-In . SVG Version: 6.00 Build 0)  -->
<svg version="1.1" id="Layer_1" xmlns="http://www.w3.org/2000/svg" xmlns:xlink="http://www.w3.org/1999/xlink" x="0px" y="0px"
	 viewBox="0 0 256 256" enable-background="new 0 0 256 256" xml:space="preserve">
<g>
	<path fill="#CECECE" d="M32.035,205.153c-7.535,0-13.665-6.13-13.665-13.665V67.712c0-7.535,6.13-13.665,13.665-13.665h191.931
		c7.535,0,13.665,6.13,13.665,13.665v123.776c0,7.535-6.13,13.665-13.665,13.665H32.035z"/>
	<g>
		<path fill="#E2E2E2" d="M223.965,54.047h-14.667c7.534,0,13.665,6.13,13.665,13.665v123.776c0,7.534-6.13,13.665-13.665,13.665
			h14.667c7.535,0,13.665-6.13,13.665-13.665V67.712C237.63,60.178,231.5,54.047,223.965,54.047z"/>
	</g>
	<g>
		<path fill="#AFAFAF" d="M32.035,54.047h14.667c-7.534,0-13.665,6.13-13.665,13.665v123.776c0,7.534,6.13,13.665,13.665,13.665
			H32.035c-7.535,0-13.665-6.13-13.665-13.665V67.712C18.37,60.178,24.5,54.047,32.035,54.047z"/>
	</g>
	<path fill="#63BCE7" d="M229.221,67.736v123.728c0,2.916-2.364,5.28-5.28,5.28H32.059c-2.916,0-5.28-2.364-5.28-5.28V67.736
		c0-2.916,2.364-5.28,5.28-5.28h191.882C226.857,62.456,229.221,64.82,229.221,67.736z"/>
	<g>
		<path fill="#63E2E7" d="M223.941,62.456h-14.667c2.916,0,5.28,2.364,5.28,5.28v123.728c0,2.916-2.364,5.28-5.28,5.28h14.667
			c2.916,0,5.28-2.364,5.28-5.28V67.736C229.221,64.82,226.857,62.456,223.941,62.456z"/>
	</g>
	<g>
		<path fill="#6377E7" d="M32.059,62.456h14.667c-2.916,0-5.28,2.364-5.28,5.28v123.728c0,2.916,2.364,5.28,5.28,5.28H32.059
			c-2.916,0-5.28-2.364-5.28-5.28V67.736C26.779,64.82,29.143,62.456,32.059,62.456z"/>
	</g>
	<path fill="#CECECE" d="M128,205.153H8.667l3.053,7.024c2.751,6.329,8.995,10.423,15.896,10.423H128h100.385
		c6.901,0,13.145-4.094,15.896-10.423l3.053-7.024H128z"/>
	<g>
		<path fill="#E2E2E2" d="M232.667,205.153l-3.053,7.024c-2.751,6.329-8.995,10.423-15.896,10.423h14.667
			c6.901,0,13.145-4.094,15.896-10.423l3.053-7.024H232.667z"/>
	</g>
	<g>
		<path fill="#AFAFAF" d="M23.333,205.153l3.053,7.024c2.751,6.329,8.995,10.423,15.896,10.423H27.615
			c-6.901,0-13.145-4.094-15.896-10.423l-3.053-7.024H23.333z"/>
	</g>
	<path fill="#707070" d="M82.442,205.153l4.22,5.388c1.649,2.106,4.175,3.336,6.85,3.336h68.975c2.675,0,5.201-1.23,6.85-3.336
		l4.221-5.388H82.442z"/>
	<g>
		<polygon fill="#F46275" points="204.02,41.982 184.466,22.427 116.961,22.427 116.961,141.681 204.02,141.681 		"/>
		<rect x="128.281" y="39.243" fill="#63BCE7" width="24.867" height="24.867"/>
	</g>
	<path fill="#F8AF23" d="M193.308,163.573L193.308,163.573c-4.044,0-7.323,3.279-7.323,7.323v-3.33c0-4.032-3.154-7.491-7.186-7.565
		c-4.107-0.075-7.46,3.232-7.46,7.322v-3.193c0-4.044-3.279-7.323-7.323-7.323h0c-4.044,0-7.323,3.279-7.323,7.323v-28.189
		c0-4.044-3.279-7.323-7.323-7.323h0c-4.044,0-7.323,3.279-7.323,7.323v52.698l-9.025-9.025c-2.851-2.851-7.527-3.066-10.43-0.268
		c-2.957,2.851-2.99,7.56-0.098,10.452l16.693,16.693c1.831,1.831,2.86,4.315,2.86,6.904v9.204h51.742v-7.906l3.711-6.349
		c2.05-3.508,3.131-7.499,3.131-11.562v-25.887C200.631,166.852,197.352,163.573,193.308,163.573z"/>
	<g>
		<circle fill="#F8AF23" cx="74.04" cy="129.6" r="47.261"/>
		<g>
			<path fill="#3F3679" d="M245.656,212.774l3.053-7.023c0.202-0.464,0.156-0.997-0.121-1.42s-0.749-0.678-1.254-0.678h-14.352
				c3.722-2.766,6.149-7.182,6.149-12.165V67.712c0-8.361-6.803-15.164-15.165-15.164h-18.445V41.981
				c0-0.397-0.158-0.779-0.439-1.061l-19.555-19.555c-0.281-0.281-0.663-0.439-1.061-0.439H116.96c-0.829,0-1.5,0.672-1.5,1.5
				v30.121H32.035c-8.362,0-15.165,6.803-15.165,15.164v123.776c0,4.983,2.427,9.399,6.149,12.165H8.667
				c-0.505,0-0.977,0.255-1.254,0.678s-0.323,0.957-0.121,1.42l3.053,7.023c1.517,3.491,4.013,6.352,7.08,8.326H9.32
				c-0.829,0-1.5,0.672-1.5,1.5s0.671,1.5,1.5,1.5h18.295h114.432h51.742h34.595h18.295c0.829,0,1.5-0.672,1.5-1.5
				s-0.671-1.5-1.5-1.5h-8.105C241.643,219.126,244.139,216.266,245.656,212.774z M223.965,55.548
				c6.708,0,12.165,5.457,12.165,12.164v123.776c0,6.708-5.457,12.165-12.165,12.165h-22.834c0.516-1.759,0.84-3.572,0.951-5.409
				h21.859c3.739,0,6.78-3.042,6.78-6.78V67.736c0-3.738-3.042-6.78-6.78-6.78h-18.42v-5.408H223.965z M187.029,164.704
				c-1.159-3.536-4.398-6.132-8.203-6.202c-2.385-0.045-4.642,0.853-6.346,2.525c-0.05,0.05-0.101,0.101-0.15,0.151
				c-1.217-3.418-4.485-5.871-8.315-5.871c-2.229,0-4.268,0.831-5.823,2.199v-14.326h45.827c0.829,0,1.5-0.672,1.5-1.5V63.956h18.42
				c2.084,0,3.78,1.696,3.78,3.78v123.728c0,2.084-1.696,3.78-3.78,3.78h-21.81v-24.348c0-4.865-3.958-8.823-8.823-8.823
				C190.854,162.073,188.63,163.081,187.029,164.704z M185.965,26.048l14.434,14.434h-14.434V26.048z M118.46,23.927h64.505v18.055
				c0,0.828,0.671,1.5,1.5,1.5h18.055v96.699h-44.327v-4.239c0-4.865-3.958-8.823-8.823-8.823c-4.865,0-8.823,3.958-8.823,8.823
				v4.239h-18.916c0.757-3.409,1.17-6.946,1.17-10.58c0-7.168-1.567-13.973-4.357-20.108c0.006-0.053,0.016-0.104,0.016-0.159
				V23.927z M121.435,190.859l4.385,4.385h-93.76c-2.084,0-3.78-1.696-3.78-3.78v-45.023c6.872,18.613,24.791,31.92,45.761,31.92
				c22.174,0,40.926-14.883,46.823-35.181h19.685v41.837l-6.464-6.464c-3.472-3.472-9.095-3.6-12.532-0.287
				c-1.72,1.659-2.68,3.888-2.701,6.274S119.747,189.172,121.435,190.859z M115.46,103.912
				c-8.613-13.838-23.955-23.073-41.42-23.073c-20.971,0-38.89,13.308-45.761,31.921V67.736c0-2.084,1.696-3.78,3.78-3.78h83.401
				V103.912z M74.04,83.839c25.233,0,45.761,20.528,45.761,45.762c0,25.232-20.528,45.761-45.761,45.761
				s-45.761-20.528-45.761-45.761C28.279,104.367,48.807,83.839,74.04,83.839z M19.87,191.488V67.712
				c0-6.707,5.457-12.164,12.165-12.164h83.426v5.408H32.059c-3.739,0-6.78,3.042-6.78,6.78v123.728c0,3.738,3.042,6.78,6.78,6.78
				h96.556c0.063,0,0.124-0.011,0.185-0.019l5.428,5.428H82.442H32.035C25.327,203.653,19.87,198.196,19.87,191.488z
				 M137.228,206.653l0.899,0.899c1.317,1.317,2.128,3.003,2.351,4.824H93.513c-2.229,0-4.295-1.006-5.669-2.761l-2.321-2.963h51.54
				H137.228z M15.435,215.377h29.14c0.829,0,1.5-0.672,1.5-1.5s-0.671-1.5-1.5-1.5H13.478c-0.132-0.263-0.264-0.526-0.382-0.798
				l-2.141-4.926h21.081h49.677l3.77,4.813c1.947,2.485,4.874,3.911,8.031,3.911h47.035v5.724H27.615
				C22.829,221.101,18.395,218.944,15.435,215.377z M143.547,221.101v-7.704c0-3.009-1.171-5.838-3.299-7.965l-16.693-16.693
				c-1.114-1.114-1.719-2.595-1.705-4.17c0.014-1.576,0.647-3.047,1.783-4.142c2.268-2.187,6.004-2.075,8.329,0.248l9.024,9.025
				c0.428,0.43,1.072,0.56,1.635,0.325c0.56-0.232,0.926-0.779,0.926-1.386v-52.698c0-3.211,2.612-5.823,5.823-5.823
				c3.21,0,5.823,2.612,5.823,5.823v28.189v9.96c0,0.828,0.671,1.5,1.5,1.5s1.5-0.672,1.5-1.5v-9.96
				c0-3.211,2.612-5.823,5.823-5.823c3.211,0,5.823,2.612,5.823,5.823v3.192v9.358c0,0.828,0.671,1.5,1.5,1.5s1.5-0.672,1.5-1.5
				v-9.358c0-1.575,0.619-3.051,1.744-4.155c1.124-1.104,2.617-1.701,4.188-1.666c3.151,0.058,5.714,2.778,5.714,6.064v3.33v9.188
				c0,0.828,0.671,1.5,1.5,1.5s1.5-0.672,1.5-1.5v-9.188c0-3.211,2.612-5.823,5.823-5.823s5.823,2.612,5.823,5.823v25.887
				c0,3.794-1.012,7.529-2.926,10.805l-3.71,6.35c-0.134,0.229-0.205,0.491-0.205,0.757v6.406H143.547z M228.385,221.101H195.29
				v-5.724h5.866c0.829,0,1.5-0.672,1.5-1.5s-0.671-1.5-1.5-1.5h-4.274l1.914-3.275c0.463-0.792,0.87-1.613,1.239-2.448h23.931
				h21.081l-2.141,4.926c-0.118,0.272-0.25,0.535-0.382,0.798h-31.099c-0.829,0-1.5,0.672-1.5,1.5s0.671,1.5,1.5,1.5h29.141
				C237.605,218.944,233.172,221.101,228.385,221.101z"/>
			<path fill="#3F3679" d="M65.22,212.377H54.845c-0.829,0-1.5,0.672-1.5,1.5s0.671,1.5,1.5,1.5H65.22c0.829,0,1.5-0.672,1.5-1.5
				S66.048,212.377,65.22,212.377z"/>
			<path fill="#3F3679" d="M27.323,232.073H9.32c-0.829,0-1.5,0.672-1.5,1.5s0.671,1.5,1.5,1.5h18.003c0.829,0,1.5-0.672,1.5-1.5
				S28.152,232.073,27.323,232.073z"/>
			<path fill="#3F3679" d="M246.68,232.073h-18.003c-0.829,0-1.5,0.672-1.5,1.5s0.671,1.5,1.5,1.5h18.003c0.829,0,1.5-0.672,1.5-1.5
				S247.509,232.073,246.68,232.073z"/>
			<path fill="#3F3679" d="M218.479,232.073H37.521c-0.829,0-1.5,0.672-1.5,1.5s0.671,1.5,1.5,1.5h180.959
				c0.829,0,1.5-0.672,1.5-1.5S219.308,232.073,218.479,232.073z"/>
			<path fill="#3F3679" d="M128.281,65.609h24.867c0.829,0,1.5-0.672,1.5-1.5V39.243c0-0.828-0.671-1.5-1.5-1.5h-24.867
				c-0.829,0-1.5,0.672-1.5,1.5v24.866C126.781,64.938,127.453,65.609,128.281,65.609z M129.781,40.743h21.867v21.866h-21.867
				V40.743z"/>
			<path fill="#3F3679" d="M160.491,40.743h17.527c0.829,0,1.5-0.672,1.5-1.5s-0.671-1.5-1.5-1.5h-17.527
				c-0.829,0-1.5,0.672-1.5,1.5S159.662,40.743,160.491,40.743z"/>
			<path fill="#3F3679" d="M160.491,49.27h33.752c0.829,0,1.5-0.672,1.5-1.5s-0.671-1.5-1.5-1.5h-33.752c-0.829,0-1.5,0.672-1.5,1.5
				S159.662,49.27,160.491,49.27z"/>
			<path fill="#3F3679" d="M160.491,57.796h17.527c0.829,0,1.5-0.672,1.5-1.5s-0.671-1.5-1.5-1.5h-17.527
				c-0.829,0-1.5,0.672-1.5,1.5S159.662,57.796,160.491,57.796z"/>
			<path fill="#3F3679" d="M128.281,77.532h57.158c0.829,0,1.5-0.672,1.5-1.5s-0.671-1.5-1.5-1.5h-57.158
				c-0.829,0-1.5,0.672-1.5,1.5S127.453,77.532,128.281,77.532z"/>
			<path fill="#3F3679" d="M128.281,86.532h58.105c0.829,0,1.5-0.672,1.5-1.5s-0.671-1.5-1.5-1.5h-58.105
				c-0.829,0-1.5,0.672-1.5,1.5S127.453,86.532,128.281,86.532z"/>
			<path fill="#3F3679" d="M128.281,95.532h55.947c0.829,0,1.5-0.672,1.5-1.5s-0.671-1.5-1.5-1.5h-55.947
				c-0.829,0-1.5,0.672-1.5,1.5S127.453,95.532,128.281,95.532z"/>
			<path fill="#3F3679" d="M128.281,104.532h55.947c0.829,0,1.5-0.672,1.5-1.5s-0.671-1.5-1.5-1.5h-55.947
				c-0.829,0-1.5,0.672-1.5,1.5S127.453,104.532,128.281,104.532z"/>
			<path fill="#3F3679" d="M128.281,113.532h55.737c0.829,0,1.5-0.672,1.5-1.5s-0.671-1.5-1.5-1.5h-55.737
				c-0.829,0-1.5,0.672-1.5,1.5S127.453,113.532,128.281,113.532z"/>
			<path fill="#3F3679" d="M128.281,122.532h60.053c0.829,0,1.5-0.672,1.5-1.5s-0.671-1.5-1.5-1.5h-60.053
				c-0.829,0-1.5,0.672-1.5,1.5S127.453,122.532,128.281,122.532z"/>
		</g>
		<g>
			<path fill="#3F3679" d="M98.603,129.571v16.858c0,1.314-0.492,2.453-1.477,3.418c-0.985,0.966-2.154,1.449-3.505,1.449H78.79
				v11.876c0,1.352-0.483,2.501-1.448,3.447c-0.966,0.947-2.106,1.419-3.419,1.419c-1.389,0-2.568-0.472-3.533-1.419
				c-0.966-0.947-1.449-2.095-1.449-3.447v-11.991H54.228c-1.314,0-2.453-0.472-3.418-1.419c-0.966-0.947-1.449-2.095-1.449-3.447
				c0-1.351,0.472-2.501,1.419-3.447c0.947-0.946,2.095-1.419,3.447-1.419h34.41v-7.009H54.344c-1.352,0-2.501-0.464-3.446-1.39
				c-0.948-0.927-1.42-2.086-1.42-3.476v-16.799c0-1.352,0.472-2.501,1.42-3.447c0.946-0.946,2.094-1.419,3.446-1.419h14.598V96.03
				c0-1.313,0.454-2.453,1.362-3.419c0.907-0.965,2.133-1.448,3.679-1.448c1.313,0,2.442,0.473,3.389,1.419
				c0.946,0.947,1.419,2.095,1.419,3.447v11.876h14.946c1.351,0,2.52,0.483,3.505,1.448c0.985,0.966,1.477,2.106,1.477,3.419
				c0,1.352-0.492,2.52-1.477,3.505c-0.985,0.985-2.154,1.477-3.505,1.477h-34.41v6.951h34.295c1.351,0,2.52,0.484,3.505,1.449
				C98.11,127.119,98.603,128.258,98.603,129.571z"/>
		</g>
	</g>
</g>
</svg>
