<svg width="42" height="42" viewBox="0 0 42 42" fill="none" xmlns="http://www.w3.org/2000/svg">
<g id="9 - Email 1" clip-path="url(#clip0_10_1604)">
<path id="Vector" fill-rule="evenodd" clip-rule="evenodd" d="M2.80109 19.1484L14.3661 27.1556L9.46109 32.0738C9.32727 32.2019 9.22032 32.3554 9.14648 32.5253C9.07265 32.6952 9.03341 32.8781 9.03105 33.0633C9.0287 33.2485 9.06327 33.4323 9.13276 33.604C9.20225 33.7757 9.30526 33.9318 9.43578 34.0633C9.5663 34.1948 9.72171 34.2989 9.89294 34.3697C10.0642 34.4405 10.2478 34.4764 10.4331 34.4755C10.6184 34.4745 10.8016 34.4367 10.9721 34.3642C11.1426 34.2917 11.2969 34.1859 11.4261 34.0531L16.7061 28.775L20.2011 31.2041C20.4346 31.366 20.712 31.4528 20.9961 31.4528C21.2802 31.4528 21.5576 31.366 21.7911 31.2041L25.2861 28.775L30.5511 34.0531C30.6811 34.1831 30.8354 34.2862 31.0053 34.3565C31.1752 34.4268 31.3572 34.4631 31.5411 34.4631C31.725 34.4631 31.907 34.4268 32.0769 34.3565C32.2467 34.2862 32.4011 34.1831 32.5311 34.0531C32.6611 33.9232 32.7642 33.7689 32.8346 33.5991C32.905 33.4293 32.9412 33.2473 32.9412 33.0635C32.9412 32.8797 32.905 32.6977 32.8346 32.5279C32.7642 32.3581 32.6611 32.2038 32.5311 32.0738L27.6261 27.1556L39.1911 19.1484V34.5629C39.1951 35.1712 39.0784 35.7743 38.8478 36.3373C38.6172 36.9002 38.2773 37.4119 37.8477 37.8427C37.4181 38.2736 36.9073 38.615 36.3449 38.8474C35.7825 39.0797 35.1796 39.1983 34.5711 39.1963H7.49609C6.88756 39.1983 6.28467 39.0797 5.72227 38.8474C5.15986 38.615 4.6491 38.2736 4.2195 37.8427C3.7899 37.4119 3.44998 36.9002 3.21939 36.3373C2.98881 35.7743 2.87213 35.1712 2.87609 34.5629L2.80109 19.1484ZM13.4961 15.0849C13.1491 15.1208 12.8278 15.284 12.5942 15.543C12.3606 15.8019 12.2313 16.1382 12.2313 16.4869C12.2313 16.8356 12.3606 17.1719 12.5942 17.4308C12.8278 17.6898 13.1491 17.853 13.4961 17.8889H28.4961C28.6925 17.9092 28.8909 17.8881 29.0786 17.8269C29.2663 17.7657 29.439 17.6658 29.5856 17.5336C29.7322 17.4015 29.8494 17.24 29.9296 17.0597C30.0099 16.8794 30.0513 16.6842 30.0513 16.4869C30.0513 16.2896 30.0099 16.0944 29.9296 15.9141C29.8494 15.7338 29.7322 15.5723 29.5856 15.4402C29.439 15.308 29.2663 15.2081 29.0786 15.1469C28.8909 15.0857 28.6925 15.0646 28.4961 15.0849H13.4961ZM34.4961 14.4401L38.0361 16.5694L34.4961 19.0285V14.4401ZM7.49609 14.4401V18.9385L3.98609 16.5694L7.49609 14.4401ZM13.3161 7.49761C12.9382 7.52147 12.5852 7.69443 12.3348 7.97845C12.0845 8.26247 11.9572 8.63427 11.9811 9.01207C12.005 9.38987 12.178 9.74271 12.4621 9.99298C12.7462 10.2433 13.1182 10.3705 13.4961 10.3466H20.9961C21.374 10.3466 21.7365 10.1965 22.0037 9.92937C22.271 9.66222 22.4211 9.2999 22.4211 8.9221C22.4211 8.5443 22.271 8.18198 22.0037 7.91483C21.7365 7.64769 21.374 7.49761 20.9961 7.49761H13.3161ZM26.9061 5.23342L30.0711 8.99707H26.9061V5.23342ZM11.9961 2.80428H24.1611V10.4965C24.1611 10.8704 24.3096 11.2289 24.5741 11.4932C24.8385 11.7575 25.1971 11.906 25.5711 11.906H31.7061V20.9928L20.9961 28.3402L10.3311 20.9928V4.49868C10.33 4.28618 10.372 4.07566 10.4545 3.87981C10.537 3.68396 10.6583 3.50682 10.8111 3.35909C10.9539 3.18313 11.1346 3.0418 11.3399 2.94571C11.5451 2.84961 11.7695 2.80126 11.9961 2.80428ZM25.4961 0.00028539H11.9961C10.8026 0.00028539 9.65803 0.474222 8.81411 1.31783C7.9702 2.16145 7.49609 3.30563 7.49609 4.49868V11.2463L0.761094 15.2948C0.538621 15.409 0.350526 15.5803 0.216095 15.7911C0.0816644 16.0019 0.00573552 16.2446 -0.00390625 16.4944V34.5629C0.0158557 36.5383 0.814748 38.4261 2.21913 39.8159C3.62352 41.2058 5.5199 41.9854 7.49609 41.9853H34.6461C36.5962 41.9464 38.4544 41.1496 39.8266 39.7639C41.1988 38.3782 41.977 36.5126 41.9961 34.5629V16.4944C41.9946 16.2254 41.9161 15.9625 41.7699 15.7366C41.6237 15.5108 41.4159 15.3315 41.1711 15.2198L34.4961 11.1713V10.8564C34.5539 10.6299 34.5525 10.3924 34.4921 10.1666C34.4317 9.94078 34.3143 9.73428 34.1511 9.56687L26.6511 0.570082C26.5213 0.386437 26.3477 0.238122 26.146 0.138613C25.9442 0.0391042 25.7209 -0.00844529 25.4961 0.00028539Z" fill="#FBB52D"/>
</g>
<defs>
<clipPath id="clip0_10_1604">
<rect width="42" height="42" fill="white" transform="translate(-0.00390625)"/>
</clipPath>
</defs>
</svg>
