<svg width="130" height="50" viewBox="0 0 130 50" fill="none" xmlns="http://www.w3.org/2000/svg">
<g id="Group 2097">
<circle id="Ellipse 23" cx="5" cy="45" r="5" transform="rotate(-90 5 45)" fill="#FBB52D"/>
<circle id="Ellipse 35" cx="85" cy="45" r="5" transform="rotate(-90 85 45)" fill="#FBB52D"/>
<circle id="Ellipse 27" cx="5" cy="25" r="5" transform="rotate(-90 5 25)" fill="#FBB52D"/>
<circle id="Ellipse 36" cx="85" cy="25" r="5" transform="rotate(-90 85 25)" fill="#FBB52D"/>
<circle id="Ellipse 31" cx="5" cy="5" r="5" transform="rotate(-90 5 5)" fill="#FBB52D"/>
<circle id="Ellipse 37" cx="85" cy="5" r="5" transform="rotate(-90 85 5)" fill="#FBB52D"/>
<circle id="Ellipse 25" cx="25" cy="45" r="5" transform="rotate(-90 25 45)" fill="#FBB52D"/>
<circle id="Ellipse 38" cx="105" cy="45" r="5" transform="rotate(-90 105 45)" fill="#FBB52D"/>
<circle id="Ellipse 28" cx="25" cy="25" r="5" transform="rotate(-90 25 25)" fill="#FBB52D"/>
<circle id="Ellipse 39" cx="105" cy="25" r="5" transform="rotate(-90 105 25)" fill="#FBB52D"/>
<circle id="Ellipse 32" cx="25" cy="5" r="5" transform="rotate(-90 25 5)" fill="#FBB52D"/>
<circle id="Ellipse 40" cx="105" cy="5" r="5" transform="rotate(-90 105 5)" fill="#FBB52D"/>
<circle id="Ellipse 26" cx="45" cy="45" r="5" transform="rotate(-90 45 45)" fill="#FBB52D"/>
<circle id="Ellipse 41" cx="125" cy="45" r="5" transform="rotate(-90 125 45)" fill="#FBB52D"/>
<circle id="Ellipse 29" cx="45" cy="25" r="5" transform="rotate(-90 45 25)" fill="#FBB52D"/>
<circle id="Ellipse 42" cx="125" cy="25" r="5" transform="rotate(-90 125 25)" fill="#FBB52D"/>
<circle id="Ellipse 33" cx="45" cy="5" r="5" transform="rotate(-90 45 5)" fill="#FBB52D"/>
<circle id="Ellipse 43" cx="125" cy="5" r="5" transform="rotate(-90 125 5)" fill="#FBB52D"/>
<circle id="Ellipse 44" cx="65" cy="45" r="5" transform="rotate(-90 65 45)" fill="#FBB52D"/>
<circle id="Ellipse 45" cx="65" cy="25" r="5" transform="rotate(-90 65 25)" fill="#FBB52D"/>
<circle id="Ellipse 46" cx="65" cy="5" r="5" transform="rotate(-90 65 5)" fill="#FBB52D"/>
</g>
</svg>
