<svg width="50" height="150" viewBox="0 0 50 150" fill="none" xmlns="http://www.w3.org/2000/svg">
<g id="Group 2097">
<circle id="Ellipse 23" cx="5" cy="25" r="5" fill="#FBB52D"/>
<circle id="Ellipse 35" cx="5" cy="105" r="5" fill="#FBB52D"/>
<circle id="Ellipse 27" cx="25" cy="25" r="5" fill="#FBB52D"/>
<circle id="Ellipse 36" cx="25" cy="105" r="5" fill="#FBB52D"/>
<circle id="Ellipse 31" cx="45" cy="25" r="5" fill="#FBB52D"/>
<circle id="Ellipse 37" cx="45" cy="105" r="5" fill="#FBB52D"/>
<circle id="Ellipse 25" cx="5" cy="45" r="5" fill="#FBB52D"/>
<circle id="Ellipse 38" cx="5" cy="125" r="5" fill="#FBB52D"/>
<circle id="Ellipse 28" cx="25" cy="45" r="5" fill="#FBB52D"/>
<circle id="Ellipse 39" cx="25" cy="125" r="5" fill="#FBB52D"/>
<circle id="Ellipse 32" cx="45" cy="45" r="5" fill="#FBB52D"/>
<circle id="Ellipse 40" cx="45" cy="125" r="5" fill="#FBB52D"/>
<circle id="Ellipse 26" cx="5" cy="65" r="5" fill="#FBB52D"/>
<circle id="Ellipse 41" cx="5" cy="145" r="5" fill="#FBB52D"/>
<circle id="Ellipse 29" cx="25" cy="65" r="5" fill="#FBB52D"/>
<circle id="Ellipse 42" cx="25" cy="145" r="5" fill="#FBB52D"/>
<circle id="Ellipse 33" cx="45" cy="65" r="5" fill="#FBB52D"/>
<circle id="Ellipse 43" cx="45" cy="145" r="5" fill="#FBB52D"/>
<circle id="Ellipse 24" cx="5" cy="5" r="5" fill="#FBB52D"/>
<circle id="Ellipse 44" cx="5" cy="85" r="5" fill="#FBB52D"/>
<circle id="Ellipse 30" cx="25" cy="5" r="5" fill="#FBB52D"/>
<circle id="Ellipse 45" cx="25" cy="85" r="5" fill="#FBB52D"/>
<circle id="Ellipse 34" cx="45" cy="5" r="5" fill="#FBB52D"/>
<circle id="Ellipse 46" cx="45" cy="85" r="5" fill="#FBB52D"/>
</g>
</svg>
