<svg width="183" height="107" viewBox="0 0 183 107" fill="none" xmlns="http://www.w3.org/2000/svg">
<g id="Frame 6">
<g id="Group 1993">
<g id="Cure">
<path d="M42.3075 20.0142C38.6185 20.0142 35.7987 21.3923 33.8481 24.1485C31.8976 26.9047 30.9223 30.6785 30.9223 35.4701C30.9223 40.304 31.8128 44.0567 33.5937 46.7281C35.417 49.3571 38.3216 50.6716 42.3075 50.6716C44.1733 50.6716 46.0178 50.4596 47.8411 50.0355C49.7069 49.6115 51.721 49.0179 53.8836 48.2546V56.3324C51.8906 57.138 49.9189 57.7317 47.9683 58.1133C46.0178 58.4949 43.834 58.6858 41.4171 58.6858C36.7527 58.6858 32.8941 57.7317 29.841 55.8236C26.8304 53.873 24.6043 51.1592 23.1626 47.6822C21.7209 44.1627 21 40.0708 21 35.4065C21 30.827 21.8269 26.7775 23.4806 23.258C25.1343 19.7386 27.5301 16.9824 30.6679 14.9894C33.8481 12.9965 37.728 12 42.3075 12C44.5549 12 46.8023 12.2968 49.0496 12.8905C51.3394 13.4417 53.5231 14.205 55.6009 15.1802L52.4843 23.0036C50.7881 22.1979 49.0708 21.4983 47.3323 20.9046C45.6362 20.311 43.9613 20.0142 42.3075 20.0142Z" fill="#787E88"/>
<path d="M94.6362 23.3216V58.0497H87.3853L86.1132 53.5974H85.6044C84.5019 55.3783 82.9754 56.6716 81.0248 57.4773C79.1167 58.2829 77.0814 58.6858 74.9188 58.6858C71.1873 58.6858 68.1979 57.6893 65.9506 55.6963C63.7032 53.661 62.5795 50.4172 62.5795 45.9648V23.3216H72.0566V43.6115C72.0566 46.0709 72.5018 47.9366 73.3923 49.2087C74.2828 50.4808 75.7033 51.1168 77.6538 51.1168C80.5372 51.1168 82.5089 50.1415 83.569 48.191C84.6291 46.1981 85.1591 43.3571 85.1591 39.668V23.3216H94.6362Z" fill="#787E88"/>
<path d="M123.972 22.6856C124.439 22.6856 124.99 22.7068 125.626 22.7492C126.262 22.7916 126.771 22.8552 127.153 22.94L126.453 31.8446C126.156 31.7598 125.711 31.6962 125.117 31.6538C124.566 31.569 124.078 31.5266 123.654 31.5266C122.043 31.5266 120.495 31.8234 119.011 32.4171C117.527 32.9683 116.319 33.88 115.386 35.1521C114.495 36.4242 114.05 38.1627 114.05 40.3676V58.0497H104.573V23.3216H111.76L113.16 29.1732H113.605C114.622 27.3923 116.022 25.8658 117.803 24.5937C119.584 23.3216 121.64 22.6856 123.972 22.6856Z" fill="#787E88"/>
<path d="M146.525 22.6856C151.316 22.6856 155.111 24.0637 157.91 26.8199C160.708 29.5337 162.108 33.4135 162.108 38.4595V43.039H139.719C139.804 45.7104 140.588 47.8094 142.072 49.3359C143.599 50.8624 145.698 51.6257 148.369 51.6257C150.617 51.6257 152.652 51.4136 154.475 50.9896C156.299 50.5232 158.185 49.8235 160.136 48.8907V56.2052C158.44 57.0532 156.638 57.6681 154.73 58.0497C152.864 58.4737 150.595 58.6858 147.924 58.6858C144.447 58.6858 141.373 58.0497 138.701 56.7776C136.03 55.4631 133.931 53.4914 132.404 50.8624C130.878 48.2334 130.115 44.926 130.115 40.9401C130.115 36.8694 130.793 33.4983 132.15 30.827C133.549 28.1132 135.479 26.0778 137.938 24.7209C140.397 23.364 143.26 22.6856 146.525 22.6856ZM146.588 29.4277C144.765 29.4277 143.238 30.0213 142.009 31.2086C140.821 32.3959 140.122 34.2404 139.91 36.7422H153.203C153.161 34.622 152.609 32.8835 151.549 31.5266C150.489 30.1273 148.836 29.4277 146.588 29.4277Z" fill="#787E88"/>
</g>
<g id="Resto">
<path d="M68.0898 78.1223C70.4114 78.1223 72.1208 78.5437 73.2179 79.3865C74.331 80.2292 74.8876 81.5093 74.8876 83.2266C74.8876 84.0057 74.7365 84.6895 74.4344 85.2778C74.1482 85.8503 73.7586 86.3432 73.2656 86.7566C72.7886 87.1542 72.2718 87.4801 71.7153 87.7346L76.7241 95.1524H72.7171L68.6623 88.6171H66.7303V95.1524H63.1287V78.1223H68.0898ZM67.8275 81.0799H66.7303V85.6833H67.899C69.0916 85.6833 69.9423 85.4845 70.4511 85.087C70.9759 84.6895 71.2382 84.1011 71.2382 83.322C71.2382 82.511 70.96 81.9386 70.4034 81.6047C69.8628 81.2548 69.0041 81.0799 67.8275 81.0799Z" fill="#787E88"/>
<path d="M83.9549 81.8909C85.7518 81.8909 87.1749 82.4077 88.2244 83.4412C89.2739 84.4589 89.7986 85.9139 89.7986 87.8061V89.5234H81.4028C81.4346 90.5252 81.7288 91.3123 82.2853 91.8848C82.8578 92.4572 83.6449 92.7434 84.6466 92.7434C85.4894 92.7434 86.2527 92.6639 86.9364 92.5049C87.6202 92.33 88.3278 92.0676 89.0592 91.7178V94.4607C88.4232 94.7788 87.7474 95.0093 87.0318 95.1524C86.3322 95.3115 85.4814 95.391 84.4797 95.391C83.1758 95.391 82.0229 95.1524 81.0212 94.6754C80.0194 94.1825 79.2323 93.4431 78.6599 92.4572C78.0874 91.4713 77.8012 90.231 77.8012 88.7363C77.8012 87.2098 78.0556 85.9457 78.5645 84.9439C79.0892 83.9262 79.8127 83.163 80.735 82.6541C81.6572 82.1453 82.7306 81.8909 83.9549 81.8909ZM83.9788 84.4192C83.295 84.4192 82.7226 84.6418 82.2615 85.087C81.8162 85.5322 81.5539 86.224 81.4744 87.1621H86.4594C86.4435 86.3671 86.2368 85.7151 85.8392 85.2063C85.4417 84.6815 84.8216 84.4192 83.9788 84.4192Z" fill="#787E88"/>
<path d="M101.768 91.2885C101.768 92.6083 101.299 93.6259 100.361 94.3415C99.4384 95.0411 98.055 95.391 96.2104 95.391C95.3041 95.391 94.5249 95.3274 93.873 95.2001C93.221 95.0888 92.5691 94.898 91.9171 94.6277V91.6939C92.6168 92.012 93.3721 92.2743 94.183 92.4811C94.994 92.6878 95.7095 92.7911 96.3297 92.7911C97.0293 92.7911 97.5223 92.6878 97.8085 92.4811C98.1106 92.2743 98.2617 92.004 98.2617 91.6701C98.2617 91.4475 98.1981 91.2487 98.0709 91.0738C97.9596 90.8989 97.7051 90.7001 97.3076 90.4775C96.9101 90.2549 96.2899 89.9687 95.4472 89.6188C94.6362 89.269 93.9684 88.9271 93.4436 88.5932C92.9189 88.2434 92.5293 87.83 92.2749 87.3529C92.0205 86.86 91.8933 86.2478 91.8933 85.5163C91.8933 84.3079 92.3624 83.4015 93.3005 82.7973C94.2387 82.193 95.4869 81.8909 97.0452 81.8909C97.8562 81.8909 98.6274 81.9704 99.3589 82.1294C100.09 82.2884 100.846 82.5508 101.625 82.9165L100.551 85.4686C99.9154 85.1983 99.3112 84.9757 98.7387 84.8008C98.1663 84.61 97.5859 84.5146 96.9975 84.5146C95.9481 84.5146 95.4233 84.8008 95.4233 85.3732C95.4233 85.58 95.4869 85.7708 95.6141 85.9457C95.7573 86.1047 96.0196 86.2796 96.4012 86.4704C96.7988 86.6612 97.3792 86.9156 98.1424 87.2337C98.8898 87.5358 99.5338 87.8538 100.074 88.1877C100.615 88.5058 101.028 88.9112 101.315 89.4042C101.617 89.8812 101.768 90.5093 101.768 91.2885Z" fill="#787E88"/>
<path d="M110.022 92.5526C110.42 92.5526 110.801 92.5129 111.167 92.4333C111.533 92.3538 111.899 92.2584 112.264 92.1471V94.7947C111.883 94.9537 111.406 95.0888 110.833 95.2001C110.277 95.3274 109.664 95.391 108.997 95.391C108.217 95.391 107.518 95.2638 106.898 95.0093C106.293 94.7549 105.808 94.3176 105.443 93.6975C105.093 93.0614 104.918 92.1869 104.918 91.0738V84.8008H103.225V83.2981L105.18 82.1056L106.206 79.3626H108.472V82.1294H112.121V84.8008H108.472V91.0738C108.472 91.5667 108.615 91.9404 108.901 92.1948C109.187 92.4333 109.561 92.5526 110.022 92.5526Z" fill="#787E88"/>
<path d="M126.709 88.6171C126.709 90.7796 126.136 92.4492 124.991 93.6259C123.862 94.8026 122.32 95.391 120.364 95.391C119.156 95.391 118.074 95.1286 117.12 94.6039C116.182 94.0791 115.443 93.3159 114.902 92.3141C114.362 91.2964 114.091 90.0641 114.091 88.6171C114.091 86.4545 114.656 84.7928 115.785 83.6321C116.914 82.4713 118.464 81.8909 120.436 81.8909C121.66 81.8909 122.741 82.1533 123.68 82.678C124.618 83.2027 125.357 83.966 125.898 84.9678C126.438 85.9536 126.709 87.1701 126.709 88.6171ZM117.717 88.6171C117.717 89.9051 117.923 90.883 118.337 91.5508C118.766 92.2028 119.458 92.5288 120.412 92.5288C121.35 92.5288 122.026 92.2028 122.439 91.5508C122.869 90.883 123.083 89.9051 123.083 88.6171C123.083 87.3291 122.869 86.3671 122.439 85.731C122.026 85.0791 121.342 84.7531 120.388 84.7531C119.45 84.7531 118.766 85.0791 118.337 85.731C117.923 86.3671 117.717 87.3291 117.717 88.6171Z" fill="#787E88"/>
</g>
</g>
</g>
</svg>
