<svg width="183" height="107" viewBox="0 0 183 107" fill="none" xmlns="http://www.w3.org/2000/svg">
<g id="Frame 5" clip-path="url(#clip0_10_1618)">
<g id="Group 1954">
<rect id="Rectangle 725" y="11.0291" width="27.9742" height="79.5057" fill="#787E88"/>
<rect id="Rectangle 726" x="76.5625" y="62.5605" width="27.9742" height="76.5611" transform="rotate(90 76.5625 62.5605)" fill="#787E88"/>
<rect id="Rectangle 727" x="27.9727" y="62.5605" width="27.9742" height="27.9742" transform="rotate(90 27.9727 62.5605)" fill="white"/>
<g id="Lokapin">
<path d="M41.6445 50.0742V25.4707H48.1259V44.7058H57.3639V50.0742H41.6445Z" fill="#787E88"/>
<path d="M78.5802 40.4987C78.5802 43.6176 77.7598 46.0521 76.1189 47.8023C74.489 49.5413 72.2027 50.4108 69.2601 50.4108C66.4379 50.4108 64.1899 49.5188 62.5162 47.735C60.8535 45.9512 60.0221 43.5391 60.0221 40.4987C60.0221 37.391 60.8371 34.9789 62.467 33.2624C64.1078 31.5346 66.405 30.6708 69.3586 30.6708C71.1854 30.6708 72.7989 31.0691 74.1991 31.8656C75.5993 32.6622 76.6768 33.8065 77.4316 35.2986C78.1973 36.7796 78.5802 38.5129 78.5802 40.4987ZM66.5363 40.4987C66.5363 42.1367 66.7496 43.3876 67.1762 44.2515C67.6029 45.1041 68.3194 45.5305 69.3258 45.5305C70.3212 45.5305 71.0213 45.1041 71.4261 44.2515C71.8417 43.3876 72.0496 42.1367 72.0496 40.4987C72.0496 38.8719 71.8417 37.6434 71.4261 36.8132C71.0104 35.983 70.2993 35.5679 69.2929 35.5679C68.3084 35.5679 67.6029 35.983 67.1762 36.8132C66.7496 37.6322 66.5363 38.8607 66.5363 40.4987Z" fill="#787E88"/>
<path d="M88.4745 39.3543C89.2512 38.0866 89.913 37.0993 90.46 36.3925L94.6278 31.0073H101.782L95.3333 39.1187L102.192 50.0742H94.8575L90.7882 43.2418L88.7043 44.8741V50.0742H82.2557V23.8888H88.7043V34.188C88.7043 35.9494 88.5839 37.6715 88.3433 39.3543H88.4745Z" fill="#787E88"/>
<path d="M116.533 50.0742L115.303 47.5499H115.171C114.307 48.6494 113.426 49.401 112.529 49.8049C111.632 50.2088 110.473 50.4108 109.051 50.4108C107.301 50.4108 105.922 49.8722 104.916 48.7952C103.91 47.7182 103.406 46.2036 103.406 44.2515C103.406 42.2208 104.095 40.7119 105.474 39.7246C106.852 38.7261 108.849 38.1651 111.463 38.0417L114.564 37.9407V37.6715C114.564 36.1008 113.809 35.3155 112.3 35.3155C110.943 35.3155 109.22 35.7867 107.131 36.7291L105.277 32.3873C107.443 31.2429 110.178 30.6708 113.481 30.6708C115.866 30.6708 117.709 31.2766 119.011 32.4883C120.324 33.6999 120.98 35.394 120.98 37.5705V50.0742H116.533ZM111.775 45.7661C112.551 45.7661 113.213 45.5136 113.76 45.0088C114.318 44.5039 114.597 43.8476 114.597 43.0398V41.5589L113.12 41.6262C111.009 41.7047 109.953 42.5013 109.953 44.0159C109.953 45.1827 110.56 45.7661 111.775 45.7661Z" fill="#787E88"/>
<path d="M136.502 50.4108C135.562 50.4108 134.719 50.2537 133.975 49.9396C133.232 49.6142 132.493 49.0364 131.76 48.2062H131.465C131.662 49.5413 131.76 50.3715 131.76 50.6968V58.3539H125.345V31.0073H130.562L131.465 33.4307H131.76C132.953 31.5907 134.599 30.6708 136.699 30.6708C138.756 30.6708 140.369 31.5459 141.54 33.296C142.71 35.0462 143.296 37.4471 143.296 40.4987C143.296 43.5727 142.683 45.996 141.458 47.7687C140.244 49.5301 138.592 50.4108 136.502 50.4108ZM134.353 35.8372C133.412 35.8372 132.75 36.185 132.367 36.8805C131.996 37.5649 131.793 38.5858 131.76 39.9433V40.465C131.76 42.103 131.974 43.2866 132.4 44.0159C132.827 44.7451 133.5 45.1097 134.419 45.1097C135.239 45.1097 135.835 44.7507 136.207 44.0327C136.579 43.3035 136.765 42.103 136.765 40.4314C136.765 38.7934 136.579 37.621 136.207 36.9142C135.835 36.1962 135.217 35.8372 134.353 35.8372Z" fill="#787E88"/>
<path d="M153.42 50.0742H147.004V31.0073H153.42V50.0742ZM146.84 26.2617C146.84 25.2744 147.108 24.5395 147.644 24.0571C148.18 23.5747 149.044 23.3335 150.236 23.3335C151.429 23.3335 152.298 23.5803 152.845 24.074C153.392 24.5676 153.666 25.2968 153.666 26.2617C153.666 28.1914 152.523 29.1562 150.236 29.1562C147.972 29.1562 146.84 28.1914 146.84 26.2617Z" fill="#787E88"/>
<path d="M169.631 50.0742V39.6741C169.631 38.4063 169.451 37.4527 169.09 36.8132C168.74 36.1625 168.171 35.8372 167.383 35.8372C166.3 35.8372 165.518 36.2803 165.037 37.1666C164.556 38.0529 164.315 39.5731 164.315 41.7272V50.0742H157.899V31.0073H162.74L163.544 33.3634H163.921C164.468 32.4658 165.223 31.7927 166.185 31.3439C167.159 30.8952 168.275 30.6708 169.533 30.6708C171.589 30.6708 173.186 31.2822 174.324 32.5051C175.473 33.728 176.047 35.4501 176.047 37.6715V50.0742H169.631Z" fill="#787E88"/>
</g>
</g>
</g>
<defs>
<clipPath id="clip0_10_1618">
<rect width="183" height="107" fill="white"/>
</clipPath>
</defs>
</svg>
