<svg width="183" height="107" viewBox="0 0 183 107" fill="none" xmlns="http://www.w3.org/2000/svg">
<g id="Frame 8">
<g id="Group 1952">
<path id="Rectangle 697" d="M12 37.1302C12 32.0877 16.0877 28 21.1302 28H54.9856C60.0281 28 64.1158 32.0877 64.1158 37.1302V70.9856C64.1158 76.0281 60.0281 80.1158 54.9856 80.1158H21.1302C16.0877 80.1158 12 76.0281 12 70.9856V37.1302Z" fill="#787E88"/>
<path id="T" d="M43.0958 80.0422H32.5173V49.4559H22.9565V40.7822H52.6298V49.4559H43.0958V80.0422Z" fill="white"/>
<g id="TuneHub">
<path d="M79.9371 62.6948H75.7108V50.5081H71.8911V47.0521H83.7461V50.5081H79.9371V62.6948Z" fill="#787E88"/>
<path d="M94.3707 62.6948L93.8465 61.1862H93.6004C93.2509 61.7425 92.7622 62.1705 92.1345 62.4701C91.514 62.7626 90.7828 62.9088 89.9411 62.9088C88.6073 62.9088 87.5694 62.5236 86.8276 61.7532C86.0858 60.9757 85.7149 59.8808 85.7149 58.4685V50.5723H89.8983V57.1953C89.8983 57.987 90.0089 58.5862 90.23 58.9928C90.4583 59.3993 90.8292 59.6026 91.3428 59.6026C92.0632 59.6026 92.5768 59.3209 92.8835 58.7574C93.1902 58.1867 93.3436 57.2273 93.3436 55.8792V50.5723H97.5271V62.6948H94.3707Z" fill="#787E88"/>
<path d="M108.066 62.6948V56.0825C108.066 55.2765 107.948 54.6702 107.713 54.2636C107.485 53.8499 107.114 53.643 106.6 53.643C105.894 53.643 105.384 53.9248 105.07 54.4883C104.756 55.0518 104.599 56.0183 104.599 57.3878V62.6948H100.416V50.5723H103.572L104.097 52.0702H104.343C104.699 51.4996 105.191 51.0716 105.819 50.7863C106.454 50.5009 107.182 50.3583 108.002 50.3583C109.343 50.3583 110.384 50.747 111.126 51.5245C111.875 52.302 112.25 53.3969 112.25 54.8093V62.6948H108.066Z" fill="#787E88"/>
<path d="M120.948 62.9088C118.93 62.9088 117.36 62.3738 116.24 61.3039C115.128 60.2268 114.571 58.6967 114.571 56.7138C114.571 54.6666 115.089 53.0973 116.123 52.006C117.157 50.9075 118.634 50.3583 120.552 50.3583C122.378 50.3583 123.787 50.8362 124.779 51.792C125.777 52.7407 126.277 54.1102 126.277 55.9006V57.7623H118.798C118.826 58.44 119.072 58.9714 119.536 59.3565C120.007 59.7417 120.645 59.9343 121.451 59.9343C122.186 59.9343 122.86 59.8666 123.473 59.731C124.094 59.5884 124.764 59.3494 125.485 59.0142V62.0207C124.829 62.356 124.151 62.5878 123.452 62.7162C122.753 62.8446 121.918 62.9088 120.948 62.9088ZM120.702 53.2043C120.21 53.2043 119.796 53.3613 119.461 53.6751C119.133 53.9818 118.94 54.4669 118.883 55.1302H122.478C122.464 54.5453 122.296 54.0781 121.975 53.7286C121.662 53.3791 121.237 53.2043 120.702 53.2043Z" fill="#787E88"/>
<path d="M142.294 62.6948H138.046V56.3179H133.135V62.6948H128.887V47.0521H133.135V52.8513H138.046V47.0521H142.294V62.6948Z" fill="#787E88"/>
<path d="M154.074 62.6948L153.55 61.1862H153.304C152.954 61.7425 152.465 62.1705 151.838 62.4701C151.217 62.7626 150.486 62.9088 149.644 62.9088C148.31 62.9088 147.273 62.5236 146.531 61.7532C145.789 60.9757 145.418 59.8808 145.418 58.4685V50.5723H149.601V57.1953C149.601 57.987 149.712 58.5862 149.933 58.9928C150.161 59.3993 150.532 59.6026 151.046 59.6026C151.766 59.6026 152.28 59.3209 152.587 58.7574C152.893 58.1867 153.047 57.2273 153.047 55.8792V50.5723H157.23V62.6948H154.074Z" fill="#787E88"/>
<path d="M167.523 50.3583C168.843 50.3583 169.888 50.9111 170.658 52.0167C171.436 53.1223 171.824 54.6523 171.824 56.6068C171.824 58.5755 171.432 60.1198 170.647 61.2397C169.87 62.3524 168.786 62.9088 167.395 62.9088C166.945 62.9088 166.546 62.8588 166.196 62.759C165.847 62.6663 165.533 62.5343 165.255 62.3631C164.984 62.1919 164.666 61.9066 164.303 61.5071H164.046L163.382 62.6948H160.119V46.0464H164.303V49.8126C164.303 50.262 164.253 51.0359 164.153 52.1344H164.303C164.709 51.5067 165.176 51.0537 165.704 50.7756C166.239 50.4974 166.845 50.3583 167.523 50.3583ZM165.993 53.643C165.408 53.643 164.98 53.8463 164.709 54.2529C164.438 54.6595 164.303 55.2979 164.303 56.1681V56.7566C164.303 57.7481 164.438 58.4614 164.709 58.8965C164.98 59.3244 165.422 59.5384 166.036 59.5384C166.528 59.5384 166.906 59.2888 167.17 58.7895C167.434 58.283 167.566 57.5412 167.566 56.564C167.566 54.6167 167.042 53.643 165.993 53.643Z" fill="#787E88"/>
</g>
</g>
</g>
</svg>
