<svg width="183" height="107" viewBox="0 0 183 107" fill="none" xmlns="http://www.w3.org/2000/svg">
<g id="Frame 7">
<g id="Group 1991">
<g id="Group 1992">
<path id="Ellipse 22" d="M51.0118 44.8736C51.0118 56.4018 41.831 83.057 30.5059 83.057C19.1808 83.057 10 56.4018 10 44.8736C10 33.3454 19.1808 24 30.5059 24C41.831 24 51.0118 33.3454 51.0118 44.8736Z" fill="#787E88"/>
<path id="V" d="M33.408 45.3262H38.5107L32.9809 61.7309H27.6127L22.106 45.3262H27.2317L29.5291 53.6407C30.0062 55.4884 30.2679 56.7751 30.3141 57.5007C30.368 56.977 30.4757 56.3225 30.6373 55.537C30.799 54.7516 30.9413 54.1345 31.0645 53.6856L33.408 45.3262Z" fill="white"/>
</g>
<g id="V-point">
<path d="M83.8069 40.8432H89.7581L83.3087 60.2605H77.0479L70.6255 40.8432H76.6036L79.2829 50.6847C79.8395 52.8717 80.1446 54.3946 80.1985 55.2534C80.2613 54.6336 80.387 53.8589 80.5755 52.9292C80.764 51.9995 80.9301 51.269 81.0737 50.7378L83.8069 40.8432Z" fill="#787E88"/>
<path d="M90.3505 55.0409V50.8972H97.9577V55.0409H90.3505Z" fill="#787E88"/>
<path d="M109.523 60.5261C108.751 60.5261 108.06 60.4022 107.45 60.1542C106.84 59.8975 106.234 59.4415 105.632 58.7863H105.39C105.552 59.8399 105.632 60.4951 105.632 60.7519V66.7949H100.368V45.2128H104.649L105.39 47.1253H105.632C106.611 45.6732 107.962 44.9471 109.685 44.9471C111.373 44.9471 112.696 45.6378 113.657 47.019C114.617 48.4003 115.098 50.2951 115.098 52.7034C115.098 55.1295 114.595 57.042 113.59 58.441C112.593 59.8311 111.238 60.5261 109.523 60.5261ZM107.76 49.0245C106.988 49.0245 106.445 49.299 106.13 49.8479C105.825 50.3881 105.659 51.1938 105.632 52.2651V52.6769C105.632 53.9696 105.807 54.9037 106.157 55.4792C106.507 56.0547 107.059 56.3425 107.813 56.3425C108.487 56.3425 108.976 56.0592 109.281 55.4925C109.586 54.917 109.739 53.9696 109.739 52.6503C109.739 51.3576 109.586 50.4323 109.281 49.8745C108.976 49.3078 108.469 49.0245 107.76 49.0245Z" fill="#787E88"/>
<path d="M132.682 52.7034C132.682 55.1649 132.009 57.0863 130.662 58.4675C129.325 59.8399 127.449 60.5261 125.034 60.5261C122.718 60.5261 120.874 59.8222 119.5 58.4144C118.136 57.0066 117.454 55.1029 117.454 52.7034C117.454 50.2508 118.123 48.3472 119.46 46.9925C120.806 45.6289 122.691 44.9471 125.115 44.9471C126.614 44.9471 127.938 45.2615 129.087 45.8901C130.236 46.5188 131.12 47.4219 131.739 48.5995C132.368 49.7683 132.682 51.1362 132.682 52.7034ZM122.799 52.7034C122.799 53.9961 122.974 54.9834 123.324 55.6652C123.674 56.3381 124.262 56.6745 125.088 56.6745C125.905 56.6745 126.479 56.3381 126.811 55.6652C127.153 54.9834 127.323 53.9961 127.323 52.7034C127.323 51.4196 127.153 50.45 126.811 49.7948C126.47 49.1396 125.887 48.812 125.061 48.812C124.253 48.812 123.674 49.1396 123.324 49.7948C122.974 50.4412 122.799 51.4107 122.799 52.7034Z" fill="#787E88"/>
<path d="M140.989 60.2605H135.725V45.2128H140.989V60.2605ZM135.59 41.4674C135.59 40.6883 135.81 40.1083 136.25 39.7276C136.69 39.3469 137.399 39.1565 138.377 39.1565C139.356 39.1565 140.069 39.3513 140.518 39.7409C140.967 40.1305 141.191 40.706 141.191 41.4674C141.191 42.9904 140.253 43.7518 138.377 43.7518C136.519 43.7518 135.59 42.9904 135.59 41.4674Z" fill="#787E88"/>
<path d="M154.292 60.2605V52.0526C154.292 51.0521 154.144 50.2995 153.847 49.7948C153.56 49.2813 153.093 49.0245 152.447 49.0245C151.559 49.0245 150.917 49.3742 150.522 50.0737C150.127 50.7732 149.929 51.973 149.929 53.673V60.2605H144.665V45.2128H148.637L149.297 47.0722H149.606C150.055 46.3638 150.674 45.8326 151.464 45.4784C152.263 45.1242 153.179 44.9471 154.211 44.9471C155.898 44.9471 157.209 45.4297 158.143 46.3948C159.085 47.3599 159.556 48.719 159.556 50.4722V60.2605H154.292Z" fill="#787E88"/>
<path d="M170.61 56.4222C171.319 56.4222 172.168 56.2495 173.155 55.9042V59.6894C172.446 59.9904 171.768 60.2029 171.122 60.3269C170.485 60.4597 169.735 60.5261 168.873 60.5261C167.105 60.5261 165.831 60.1011 165.05 59.2511C164.269 58.3923 163.878 57.0774 163.878 55.3066V49.1042H162.034V46.9925L164.376 45.3589L165.736 42.1979H169.183V45.2128H172.926V49.1042H169.183V54.9612C169.183 55.9352 169.659 56.4222 170.61 56.4222Z" fill="#787E88"/>
</g>
</g>
</g>
</svg>
